G04 Layer_Physical_Order=2*
G04 Layer_Color=16711680*
%FSLAX44Y44*%
%MOMM*%
G71*
G01*
G75*
G04:AMPARAMS|DCode=10|XSize=1mm|YSize=0.9mm|CornerRadius=0.1125mm|HoleSize=0mm|Usage=FLASHONLY|Rotation=0.000|XOffset=0mm|YOffset=0mm|HoleType=Round|Shape=RoundedRectangle|*
%AMROUNDEDRECTD10*
21,1,1.0000,0.6750,0,0,0.0*
21,1,0.7750,0.9000,0,0,0.0*
1,1,0.2250,0.3875,-0.3375*
1,1,0.2250,-0.3875,-0.3375*
1,1,0.2250,-0.3875,0.3375*
1,1,0.2250,0.3875,0.3375*
%
%ADD10ROUNDEDRECTD10*%
G04:AMPARAMS|DCode=12|XSize=1mm|YSize=0.9mm|CornerRadius=0.1125mm|HoleSize=0mm|Usage=FLASHONLY|Rotation=90.000|XOffset=0mm|YOffset=0mm|HoleType=Round|Shape=RoundedRectangle|*
%AMROUNDEDRECTD12*
21,1,1.0000,0.6750,0,0,90.0*
21,1,0.7750,0.9000,0,0,90.0*
1,1,0.2250,0.3375,0.3875*
1,1,0.2250,0.3375,-0.3875*
1,1,0.2250,-0.3375,-0.3875*
1,1,0.2250,-0.3375,0.3875*
%
%ADD12ROUNDEDRECTD12*%
%ADD15C,0.3000*%
%ADD16C,0.2540*%
%ADD17C,0.5000*%
%ADD18C,1.5240*%
%ADD19C,1.0000*%
%ADD20C,1.2000*%
%ADD21C,0.9000*%
G04:AMPARAMS|DCode=22|XSize=1.3mm|YSize=0.8mm|CornerRadius=0.1mm|HoleSize=0mm|Usage=FLASHONLY|Rotation=270.000|XOffset=0mm|YOffset=0mm|HoleType=Round|Shape=RoundedRectangle|*
%AMROUNDEDRECTD22*
21,1,1.3000,0.6000,0,0,270.0*
21,1,1.1000,0.8000,0,0,270.0*
1,1,0.2000,-0.3000,-0.5500*
1,1,0.2000,-0.3000,0.5500*
1,1,0.2000,0.3000,0.5500*
1,1,0.2000,0.3000,-0.5500*
%
%ADD22ROUNDEDRECTD22*%
%ADD23R,0.6500X1.1000*%
%ADD24O,1.8000X0.3000*%
%ADD25O,0.3000X1.8000*%
G04:AMPARAMS|DCode=26|XSize=0.6mm|YSize=1mm|CornerRadius=0.075mm|HoleSize=0mm|Usage=FLASHONLY|Rotation=90.000|XOffset=0mm|YOffset=0mm|HoleType=Round|Shape=RoundedRectangle|*
%AMROUNDEDRECTD26*
21,1,0.6000,0.8500,0,0,90.0*
21,1,0.4500,1.0000,0,0,90.0*
1,1,0.1500,0.4250,0.2250*
1,1,0.1500,0.4250,-0.2250*
1,1,0.1500,-0.4250,-0.2250*
1,1,0.1500,-0.4250,0.2250*
%
%ADD26ROUNDEDRECTD26*%
%ADD27R,1.4500X0.5500*%
%ADD28R,2.0000X3.0000*%
%ADD29R,2.0000X1.5000*%
G04:AMPARAMS|DCode=30|XSize=1.4mm|YSize=1mm|CornerRadius=0.125mm|HoleSize=0mm|Usage=FLASHONLY|Rotation=180.000|XOffset=0mm|YOffset=0mm|HoleType=Round|Shape=RoundedRectangle|*
%AMROUNDEDRECTD30*
21,1,1.4000,0.7500,0,0,180.0*
21,1,1.1500,1.0000,0,0,180.0*
1,1,0.2500,-0.5750,0.3750*
1,1,0.2500,0.5750,0.3750*
1,1,0.2500,0.5750,-0.3750*
1,1,0.2500,-0.5750,-0.3750*
%
%ADD30ROUNDEDRECTD30*%
%ADD31C,1.5000*%
%ADD32C,0.4000*%
G36*
X173241Y208730D02*
X165756Y201244D01*
X164864Y199910D01*
X164406Y199819D01*
X163372Y199128D01*
X162681Y198094D01*
X162439Y196875D01*
Y189125D01*
X162681Y187906D01*
X163372Y186872D01*
X164406Y186181D01*
X165625Y185939D01*
X172375D01*
X173364Y186136D01*
X173500Y186000D01*
X181500D01*
X181636Y186136D01*
X182625Y185939D01*
X189375D01*
X190594Y186181D01*
X191628Y186872D01*
X192319Y187906D01*
X192561Y189125D01*
Y189431D01*
X201522D01*
X205946Y185007D01*
Y180750D01*
X206160Y179677D01*
X206767Y178767D01*
X207677Y178160D01*
X208750Y177946D01*
X217250D01*
X218323Y178160D01*
X219233Y178767D01*
X219676Y179431D01*
X225522D01*
X229939Y175014D01*
Y172125D01*
X229967Y171982D01*
X229162Y171000D01*
X227500D01*
X227365Y170864D01*
X226375Y171061D01*
X219625D01*
X218406Y170819D01*
X217372Y170128D01*
X216681Y169094D01*
X216439Y167875D01*
Y160125D01*
X216681Y158906D01*
X217372Y157872D01*
X217442Y157158D01*
X216642Y156358D01*
X215920Y155276D01*
X215666Y154000D01*
Y143007D01*
X214396Y141990D01*
X214000Y142069D01*
X213604Y141990D01*
X212334Y143007D01*
Y150342D01*
X213128Y150872D01*
X213819Y151906D01*
X214061Y153125D01*
Y160875D01*
X213819Y162094D01*
X213128Y163128D01*
X212094Y163819D01*
X210875Y164061D01*
X209986D01*
X203749Y170298D01*
X204255Y171520D01*
X204582Y174000D01*
X204255Y176480D01*
X203298Y178791D01*
X201775Y180776D01*
X199791Y182298D01*
X197480Y183256D01*
X195000Y183582D01*
X192520Y183256D01*
X190209Y182298D01*
X188225Y180776D01*
X186702Y178791D01*
X185744Y176480D01*
X185418Y174000D01*
X185744Y171520D01*
X186702Y169209D01*
X188225Y167225D01*
X190209Y165702D01*
X191104Y165331D01*
X190851Y164061D01*
X187125D01*
X185906Y163819D01*
X184872Y163128D01*
X184181Y162094D01*
X183939Y160875D01*
Y154572D01*
X182669Y154046D01*
X181562Y155153D01*
X181255Y157480D01*
X180298Y159791D01*
X178776Y161775D01*
X176791Y163298D01*
X174480Y164255D01*
X172000Y164582D01*
X169520Y164255D01*
X167209Y163298D01*
X165225Y161775D01*
X163702Y159791D01*
X162745Y157480D01*
X162418Y155000D01*
X162745Y152520D01*
X163702Y150209D01*
X165225Y148224D01*
X167209Y146702D01*
X169520Y145744D01*
X172000Y145418D01*
X174480Y145744D01*
X176791Y146702D01*
X178775Y148224D01*
X179043Y148242D01*
X185643Y141643D01*
X186724Y140920D01*
X188000Y140666D01*
X189827D01*
X190610Y139396D01*
X190431Y138500D01*
Y134569D01*
X175478D01*
X140523Y169523D01*
X139366Y170297D01*
X138000Y170569D01*
X134455D01*
X133636Y171636D01*
X132278Y172678D01*
X130697Y173333D01*
X129000Y173556D01*
X127303Y173333D01*
X125722Y172678D01*
X124364Y171636D01*
X123322Y170278D01*
X122667Y168697D01*
X122444Y167000D01*
X122667Y165303D01*
X123322Y163722D01*
X124364Y162364D01*
X125722Y161322D01*
X127303Y160667D01*
X129000Y160444D01*
X130697Y160667D01*
X132278Y161322D01*
X133636Y162364D01*
X134455Y163431D01*
X136522D01*
X141946Y158007D01*
X141460Y156834D01*
X101061D01*
Y156875D01*
X100819Y158094D01*
X100128Y159128D01*
X99094Y159819D01*
X97875Y160061D01*
X92486D01*
X88470Y164077D01*
X88956Y165250D01*
X89000D01*
Y174750D01*
X70500D01*
Y165250D01*
X78281D01*
X78453Y164384D01*
X79227Y163227D01*
X80622Y161831D01*
X80096Y160561D01*
X74625D01*
X73636Y160364D01*
X73500Y160500D01*
X66295D01*
X65805Y160827D01*
X64375Y161112D01*
X62270D01*
Y153500D01*
Y145888D01*
X64375D01*
X65805Y146173D01*
X66295Y146500D01*
X73500D01*
X73636Y146636D01*
X74625Y146439D01*
X81375D01*
X82594Y146681D01*
X83628Y147372D01*
X84319Y148406D01*
X84561Y149625D01*
Y150166D01*
X86557D01*
X87000Y149000D01*
Y141000D01*
X87136Y140864D01*
X86939Y139875D01*
Y133125D01*
X87181Y131906D01*
X87872Y130872D01*
X88906Y130181D01*
X90125Y129939D01*
X90431D01*
Y125000D01*
X82000D01*
Y111569D01*
X61886D01*
X42649Y124685D01*
X42455Y124767D01*
X42280Y124884D01*
X42093Y124921D01*
X41917Y124996D01*
X41706Y124998D01*
X41500Y125039D01*
X7500D01*
X7000Y125449D01*
Y210000D01*
X172715D01*
X173241Y208730D01*
D02*
G37*
G36*
X267385Y164477D02*
X268542Y163703D01*
X269908Y163431D01*
X313396D01*
X314000Y162161D01*
X313322Y161278D01*
X312667Y159697D01*
X312444Y158000D01*
X312667Y156303D01*
X313322Y154722D01*
X314364Y153364D01*
X315722Y152322D01*
X317303Y151667D01*
X319000Y151444D01*
X320697Y151667D01*
X322278Y152322D01*
X322870Y152776D01*
X323913Y151976D01*
X323667Y151383D01*
X323444Y149686D01*
X323667Y147989D01*
X324322Y146408D01*
X325364Y145050D01*
X326722Y144009D01*
X328303Y143354D01*
X330000Y143130D01*
X331334Y143306D01*
X332431Y142208D01*
Y134228D01*
X332094Y134061D01*
X331161Y133726D01*
X329696Y134332D01*
X327999Y134556D01*
X326302Y134332D01*
X324721Y133678D01*
X323363Y132636D01*
X322322Y131278D01*
X321667Y129697D01*
X321443Y128000D01*
X321667Y126303D01*
X321839Y125886D01*
X317522Y121569D01*
X254500D01*
X253604Y121390D01*
X252334Y122173D01*
Y122321D01*
X252569Y123500D01*
Y124547D01*
X253839Y125226D01*
X253906Y125181D01*
X255125Y124939D01*
X262875D01*
X264094Y125181D01*
X265128Y125872D01*
X265819Y126906D01*
X266061Y128125D01*
Y134875D01*
X265864Y135864D01*
X266000Y136000D01*
Y143205D01*
X266327Y143695D01*
X266612Y145125D01*
Y147230D01*
X259000D01*
Y148500D01*
X257730D01*
Y155612D01*
X255125D01*
X253695Y155328D01*
X253396Y155128D01*
X252838Y155359D01*
X252270Y155434D01*
Y148500D01*
X249730D01*
Y155434D01*
X249162Y155359D01*
X247450Y154650D01*
X245979Y153521D01*
X244851Y152051D01*
X244141Y150338D01*
X243604Y150063D01*
X242334Y150773D01*
Y156939D01*
X243375D01*
X244594Y157181D01*
X245628Y157872D01*
X246319Y158906D01*
X246561Y160125D01*
Y167875D01*
X246533Y168018D01*
X247339Y169000D01*
X249000D01*
X249136Y169136D01*
X250125Y168939D01*
X256875D01*
X258094Y169181D01*
X259128Y169872D01*
X259555Y170511D01*
X261005Y170856D01*
X267385Y164477D01*
D02*
G37*
G36*
X145192Y146839D02*
X144666Y145569D01*
X119455D01*
X118636Y146636D01*
X117278Y147678D01*
X115697Y148333D01*
X114000Y148556D01*
X112303Y148333D01*
X110722Y147678D01*
X109364Y146636D01*
X108322Y145278D01*
X107667Y143697D01*
X107444Y142000D01*
X107667Y140303D01*
X108322Y138722D01*
X109364Y137364D01*
X110722Y136322D01*
X112303Y135667D01*
X114000Y135444D01*
X115697Y135667D01*
X117278Y136322D01*
X118636Y137364D01*
X119455Y138431D01*
X144522D01*
X155719Y127234D01*
X155233Y126061D01*
X151625D01*
X150636Y125864D01*
X150500Y126000D01*
X142500D01*
X142364Y125864D01*
X141375Y126061D01*
X137182D01*
X136678Y127278D01*
X135636Y128636D01*
X134278Y129678D01*
X132697Y130333D01*
X131000Y130556D01*
X129303Y130333D01*
X127722Y129678D01*
X126364Y128636D01*
X125322Y127278D01*
X124667Y125697D01*
X124444Y124000D01*
X124667Y122303D01*
X125322Y120722D01*
X126364Y119364D01*
X127722Y118322D01*
X129303Y117667D01*
X131000Y117444D01*
X131439Y117059D01*
Y115125D01*
X131681Y113906D01*
X132372Y112872D01*
X132883Y112530D01*
X132947Y112286D01*
X132861Y111250D01*
X131766Y110630D01*
X130848Y111104D01*
X130091Y112091D01*
X128307Y113460D01*
X126229Y114320D01*
X125270Y114446D01*
Y106000D01*
Y97554D01*
X125678Y97607D01*
X130642Y92642D01*
X131281Y92216D01*
X130672Y91305D01*
X130388Y89875D01*
Y87270D01*
X137500D01*
Y84730D01*
X130388D01*
Y82676D01*
X129242Y81979D01*
X129160Y81969D01*
X129135Y81986D01*
X128636Y82636D01*
X127278Y83678D01*
X125697Y84333D01*
X124000Y84556D01*
X122303Y84333D01*
X120722Y83678D01*
X119364Y82636D01*
X118322Y81278D01*
X117667Y79697D01*
X117444Y78000D01*
X117667Y76303D01*
X118322Y74722D01*
X119364Y73364D01*
X119944Y72919D01*
X119381Y71835D01*
X118000Y72109D01*
X116270D01*
Y64270D01*
X121609D01*
Y68500D01*
X121335Y69881D01*
X120584Y71005D01*
X120602Y71101D01*
X121311Y72078D01*
X122303Y71667D01*
X124000Y71444D01*
X125697Y71667D01*
X126508Y72003D01*
X130439Y68073D01*
Y67125D01*
X130681Y65906D01*
X131372Y64872D01*
X132406Y64181D01*
X133625Y63939D01*
X136515D01*
X140977Y59477D01*
X142134Y58703D01*
X143500Y58431D01*
X167000D01*
X168366Y58703D01*
X169456Y59431D01*
X189758D01*
X190563Y58161D01*
X190431Y57500D01*
Y42500D01*
X190656Y41371D01*
X185346Y36061D01*
X180625D01*
X179405Y35819D01*
X178372Y35128D01*
X177681Y34094D01*
X177439Y32875D01*
Y25125D01*
X177681Y23906D01*
X177726Y23839D01*
X177047Y22569D01*
X171478D01*
X149523Y44523D01*
X148366Y45297D01*
X147000Y45569D01*
X66978D01*
X63061Y49486D01*
Y52875D01*
X62864Y53864D01*
X63000Y54000D01*
Y62000D01*
X62864Y62136D01*
X63061Y63125D01*
Y69875D01*
X62819Y71094D01*
X62128Y72128D01*
X61094Y72819D01*
X59875Y73061D01*
X59569D01*
Y77250D01*
X67500D01*
Y86750D01*
X49000D01*
Y77250D01*
X52431D01*
Y73061D01*
X52125D01*
X50906Y72819D01*
X49872Y72128D01*
X49181Y71094D01*
X48939Y69875D01*
Y63125D01*
X49136Y62136D01*
X49000Y62000D01*
Y54000D01*
X49136Y53864D01*
X48939Y52875D01*
Y46125D01*
X49181Y44906D01*
X49872Y43872D01*
X50906Y43181D01*
X52125Y42939D01*
X54166D01*
Y38750D01*
X48750D01*
Y29250D01*
X67250D01*
Y38431D01*
X71710D01*
Y35270D01*
X81500D01*
X91290D01*
Y38431D01*
X145522D01*
X167477Y16477D01*
X168634Y15703D01*
X170000Y15431D01*
X209000D01*
X210366Y15703D01*
X211523Y16477D01*
X212332Y17285D01*
X213535Y16692D01*
X213444Y16000D01*
X213667Y14303D01*
X214322Y12722D01*
X215364Y11364D01*
X216722Y10322D01*
X218303Y9667D01*
X220000Y9444D01*
X221697Y9667D01*
X223278Y10322D01*
X224636Y11364D01*
X225678Y12722D01*
X226333Y14303D01*
X226556Y16000D01*
X226381Y17334D01*
X226523Y17476D01*
X226987Y18170D01*
X228464Y18489D01*
X230620Y16334D01*
X230444Y15000D01*
X230667Y13303D01*
X231322Y11722D01*
X232364Y10364D01*
X233722Y9322D01*
X235303Y8667D01*
X237000Y8444D01*
X238697Y8667D01*
X240278Y9322D01*
X241636Y10364D01*
X242678Y11722D01*
X243169Y12908D01*
X244439Y12655D01*
Y12125D01*
X244681Y10906D01*
X245372Y9872D01*
X246406Y9181D01*
X247625Y8939D01*
X254375D01*
X255364Y9136D01*
X255500Y9000D01*
X263500D01*
X263636Y9136D01*
X264625Y8939D01*
X271375D01*
X272594Y9181D01*
X273628Y9872D01*
X274319Y10906D01*
X274473Y11680D01*
X275774Y12007D01*
X275782Y12006D01*
X275872Y11872D01*
X276906Y11181D01*
X278125Y10939D01*
X285875D01*
X287094Y11181D01*
X288128Y11872D01*
X288819Y12906D01*
X289023Y13931D01*
X293750D01*
Y11500D01*
X304250D01*
Y26500D01*
X305349Y26912D01*
X311651D01*
X312750Y26500D01*
Y11500D01*
X323250D01*
Y17761D01*
X323900Y18412D01*
X328103D01*
X328189Y17982D01*
X328907Y16907D01*
X329982Y16189D01*
X331250Y15936D01*
X342750D01*
X344018Y16189D01*
X345093Y16907D01*
X345811Y17982D01*
X345897Y18412D01*
X352000D01*
Y11500D01*
X375000D01*
Y7000D01*
X7000D01*
Y90550D01*
X7500Y90961D01*
X41500D01*
X41706Y91002D01*
X41917Y91004D01*
X42093Y91079D01*
X42280Y91116D01*
X42455Y91233D01*
X42649Y91315D01*
X61886Y104431D01*
X82000D01*
Y91000D01*
X85794D01*
X86280Y89827D01*
X83203Y86750D01*
X72500D01*
Y77250D01*
X91000D01*
Y84453D01*
X96523Y89977D01*
X97207Y91000D01*
X106000D01*
Y125000D01*
X97569D01*
Y129939D01*
X97875D01*
X99094Y130181D01*
X100128Y130872D01*
X100819Y131906D01*
X101061Y133125D01*
Y139875D01*
X100864Y140864D01*
X101000Y141000D01*
Y149000D01*
X101443Y150166D01*
X141865D01*
X145192Y146839D01*
D02*
G37*
G36*
X63500Y108000D02*
X41500Y93000D01*
X7500D01*
Y123000D01*
X41500D01*
X63500Y108000D01*
D02*
G37*
G36*
X245000Y69000D02*
X195000D01*
Y103000D01*
X221000D01*
X228000Y110000D01*
Y116000D01*
X245000D01*
Y69000D01*
D02*
G37*
%LPC*%
G36*
X26270Y205081D02*
Y196270D01*
X35080D01*
X34899Y197652D01*
X33875Y200124D01*
X32246Y202246D01*
X30124Y203875D01*
X27652Y204898D01*
X26270Y205081D01*
D02*
G37*
G36*
X23730D02*
X22348Y204898D01*
X19876Y203875D01*
X17754Y202246D01*
X16125Y200124D01*
X15101Y197652D01*
X14920Y196270D01*
X23730D01*
Y205081D01*
D02*
G37*
G36*
X142270Y201080D02*
Y192270D01*
X151081D01*
X150899Y193652D01*
X149875Y196124D01*
X148246Y198246D01*
X146124Y199875D01*
X143652Y200898D01*
X142270Y201080D01*
D02*
G37*
G36*
X139730D02*
X138348Y200898D01*
X135876Y199875D01*
X133754Y198246D01*
X132125Y196124D01*
X131102Y193652D01*
X130920Y192270D01*
X139730D01*
Y201080D01*
D02*
G37*
G36*
X101270D02*
Y192270D01*
X110080D01*
X109899Y193652D01*
X108875Y196124D01*
X107246Y198246D01*
X105124Y199875D01*
X102652Y200898D01*
X101270Y201080D01*
D02*
G37*
G36*
X98730D02*
X97348Y200898D01*
X94876Y199875D01*
X92754Y198246D01*
X91125Y196124D01*
X90101Y193652D01*
X89920Y192270D01*
X98730D01*
Y201080D01*
D02*
G37*
G36*
X35080Y193730D02*
X26270D01*
Y184919D01*
X27652Y185102D01*
X30124Y186125D01*
X32246Y187754D01*
X33875Y189876D01*
X34899Y192348D01*
X35080Y193730D01*
D02*
G37*
G36*
X23730D02*
X14920D01*
X15101Y192348D01*
X16125Y189876D01*
X17754Y187754D01*
X19876Y186125D01*
X22348Y185102D01*
X23730Y184919D01*
Y193730D01*
D02*
G37*
G36*
X151081Y189730D02*
X142270D01*
Y180919D01*
X143652Y181101D01*
X146124Y182125D01*
X148246Y183754D01*
X149875Y185876D01*
X150899Y188348D01*
X151081Y189730D01*
D02*
G37*
G36*
X139730D02*
X130920D01*
X131102Y188348D01*
X132125Y185876D01*
X133754Y183754D01*
X135876Y182125D01*
X138348Y181101D01*
X139730Y180919D01*
Y189730D01*
D02*
G37*
G36*
X110080D02*
X101270D01*
Y180919D01*
X102652Y181101D01*
X105124Y182125D01*
X107246Y183754D01*
X108875Y185876D01*
X109899Y188348D01*
X110080Y189730D01*
D02*
G37*
G36*
X98730D02*
X89920D01*
X90101Y188348D01*
X91125Y185876D01*
X92754Y183754D01*
X94876Y182125D01*
X97348Y181101D01*
X98730Y180919D01*
Y189730D01*
D02*
G37*
G36*
X66040Y175290D02*
X57520D01*
Y171270D01*
X66040D01*
Y175290D01*
D02*
G37*
G36*
X54980D02*
X46460D01*
Y171270D01*
X54980D01*
Y175290D01*
D02*
G37*
G36*
X66040Y168730D02*
X57520D01*
Y164710D01*
X66040D01*
Y168730D01*
D02*
G37*
G36*
X54980D02*
X46460D01*
Y164710D01*
X54980D01*
Y168730D01*
D02*
G37*
G36*
X59730Y161112D02*
X57625D01*
X56195Y160827D01*
X54983Y160017D01*
X54173Y158805D01*
X53888Y157375D01*
Y154770D01*
X59730D01*
Y161112D01*
D02*
G37*
G36*
Y152230D02*
X53888D01*
Y149625D01*
X54173Y148195D01*
X54983Y146983D01*
X56195Y146173D01*
X57625Y145888D01*
X59730D01*
Y152230D01*
D02*
G37*
G36*
X262875Y155612D02*
X260270D01*
Y149770D01*
X266612D01*
Y151875D01*
X266327Y153305D01*
X265517Y154517D01*
X264305Y155328D01*
X262875Y155612D01*
D02*
G37*
G36*
X318584Y145620D02*
Y139956D01*
X324247D01*
X324173Y140524D01*
X323463Y142237D01*
X322335Y143707D01*
X320864Y144836D01*
X319151Y145545D01*
X318584Y145620D01*
D02*
G37*
G36*
X316044D02*
X315476Y145545D01*
X313763Y144836D01*
X312293Y143707D01*
X311164Y142237D01*
X310455Y140524D01*
X310380Y139956D01*
X316044D01*
Y145620D01*
D02*
G37*
G36*
X324247Y137416D02*
X318584D01*
Y131753D01*
X319151Y131827D01*
X320864Y132537D01*
X322335Y133665D01*
X323463Y135136D01*
X324173Y136848D01*
X324247Y137416D01*
D02*
G37*
G36*
X316044D02*
X310380D01*
X310455Y136848D01*
X311164Y135136D01*
X312293Y133665D01*
X313763Y132537D01*
X315476Y131827D01*
X316044Y131753D01*
Y137416D01*
D02*
G37*
G36*
X122730Y114446D02*
X121771Y114320D01*
X119693Y113460D01*
X117909Y112091D01*
X116540Y110307D01*
X115680Y108229D01*
X115554Y107270D01*
X122730D01*
Y114446D01*
D02*
G37*
G36*
Y104730D02*
X115554D01*
X115680Y103771D01*
X116540Y101693D01*
X117909Y99909D01*
X119693Y98540D01*
X121771Y97680D01*
X122730Y97554D01*
Y104730D01*
D02*
G37*
G36*
X113730Y72109D02*
X112000D01*
X110619Y71835D01*
X110118Y71500D01*
X99750D01*
X99413Y71164D01*
X99171Y71326D01*
X98000Y71559D01*
X92000D01*
X90829Y71326D01*
X89837Y70663D01*
X89174Y69671D01*
X89028Y68936D01*
X88023Y68410D01*
X87671Y68376D01*
X87278Y68678D01*
X85697Y69333D01*
X84000Y69556D01*
X82303Y69333D01*
X80722Y68678D01*
X79364Y67636D01*
X78322Y66278D01*
X77667Y64697D01*
X77444Y63000D01*
X77667Y61303D01*
X78322Y59722D01*
X79364Y58364D01*
X80722Y57322D01*
X82303Y56667D01*
X84000Y56444D01*
X85697Y56667D01*
X87278Y57322D01*
X87671Y57624D01*
X88023Y57590D01*
X89028Y57064D01*
X89174Y56329D01*
X89837Y55337D01*
X90829Y54674D01*
X92000Y54441D01*
X98000D01*
X99171Y54674D01*
X99413Y54837D01*
X99750Y54500D01*
X110118D01*
X110619Y54165D01*
X112000Y53891D01*
X113730D01*
Y63000D01*
Y72109D01*
D02*
G37*
G36*
X121609Y61730D02*
X116270D01*
Y53891D01*
X118000D01*
X119381Y54165D01*
X120552Y54948D01*
X121335Y56119D01*
X121609Y57500D01*
Y61730D01*
D02*
G37*
G36*
X169270Y49934D02*
Y44270D01*
X174933D01*
X174859Y44838D01*
X174149Y46550D01*
X173021Y48021D01*
X171550Y49149D01*
X169838Y49859D01*
X169270Y49934D01*
D02*
G37*
G36*
X166730D02*
X166162Y49859D01*
X164450Y49149D01*
X162979Y48021D01*
X161851Y46550D01*
X161141Y44838D01*
X161066Y44270D01*
X166730D01*
Y49934D01*
D02*
G37*
G36*
X174933Y41730D02*
X169270D01*
Y36067D01*
X169838Y36141D01*
X171550Y36851D01*
X173021Y37979D01*
X174149Y39450D01*
X174859Y41162D01*
X174933Y41730D01*
D02*
G37*
G36*
X166730D02*
X161066D01*
X161141Y41162D01*
X161851Y39450D01*
X162979Y37979D01*
X164450Y36851D01*
X166162Y36141D01*
X166730Y36067D01*
Y41730D01*
D02*
G37*
G36*
X98730Y35080D02*
X97348Y34899D01*
X94876Y33875D01*
X92754Y32246D01*
X92493Y31906D01*
X91290Y32314D01*
Y32730D01*
X82770D01*
Y28710D01*
X89397D01*
X89744Y28190D01*
X90074Y27440D01*
X89920Y26270D01*
X98730D01*
Y35080D01*
D02*
G37*
G36*
X80230Y32730D02*
X71710D01*
Y28710D01*
X80230D01*
Y32730D01*
D02*
G37*
G36*
X141270Y35080D02*
Y26270D01*
X150080D01*
X149899Y27652D01*
X148875Y30124D01*
X147246Y32246D01*
X145124Y33875D01*
X142652Y34899D01*
X141270Y35080D01*
D02*
G37*
G36*
X138730D02*
X137348Y34899D01*
X134876Y33875D01*
X132754Y32246D01*
X131125Y30124D01*
X130101Y27652D01*
X129920Y26270D01*
X138730D01*
Y35080D01*
D02*
G37*
G36*
X101270D02*
Y26270D01*
X110080D01*
X109899Y27652D01*
X108875Y30124D01*
X107246Y32246D01*
X105124Y33875D01*
X102652Y34899D01*
X101270Y35080D01*
D02*
G37*
G36*
X26270D02*
Y26270D01*
X35080D01*
X34899Y27652D01*
X33875Y30124D01*
X32246Y32246D01*
X30124Y33875D01*
X27652Y34899D01*
X26270Y35080D01*
D02*
G37*
G36*
X23730D02*
X22348Y34899D01*
X19876Y33875D01*
X17754Y32246D01*
X16125Y30124D01*
X15101Y27652D01*
X14920Y26270D01*
X23730D01*
Y35080D01*
D02*
G37*
G36*
X150080Y23730D02*
X141270D01*
Y14920D01*
X142652Y15101D01*
X145124Y16125D01*
X147246Y17754D01*
X148875Y19876D01*
X149899Y22348D01*
X150080Y23730D01*
D02*
G37*
G36*
X138730D02*
X129920D01*
X130101Y22348D01*
X131125Y19876D01*
X132754Y17754D01*
X134876Y16125D01*
X137348Y15101D01*
X138730Y14920D01*
Y23730D01*
D02*
G37*
G36*
X110080D02*
X101270D01*
Y14920D01*
X102652Y15101D01*
X105124Y16125D01*
X107246Y17754D01*
X108875Y19876D01*
X109899Y22348D01*
X110080Y23730D01*
D02*
G37*
G36*
X98730D02*
X89920D01*
X90101Y22348D01*
X91125Y19876D01*
X92754Y17754D01*
X94876Y16125D01*
X97348Y15101D01*
X98730Y14920D01*
Y23730D01*
D02*
G37*
G36*
X35080D02*
X26270D01*
Y14920D01*
X27652Y15101D01*
X30124Y16125D01*
X32246Y17754D01*
X33875Y19876D01*
X34899Y22348D01*
X35080Y23730D01*
D02*
G37*
G36*
X23730D02*
X14920D01*
X15101Y22348D01*
X16125Y19876D01*
X17754Y17754D01*
X19876Y16125D01*
X22348Y15101D01*
X23730Y14920D01*
Y23730D01*
D02*
G37*
%LPD*%
D10*
X282000Y34500D02*
D03*
Y17500D02*
D03*
X362000Y160000D02*
D03*
Y143000D02*
D03*
X56000Y49500D02*
D03*
Y66500D02*
D03*
X94000Y153500D02*
D03*
Y136500D02*
D03*
X362000Y128000D02*
D03*
Y111000D02*
D03*
X259000Y131500D02*
D03*
Y148500D02*
D03*
D12*
X251000Y16000D02*
D03*
X268000D02*
D03*
X155000Y119000D02*
D03*
X138000D02*
D03*
X154000Y71000D02*
D03*
X137000D02*
D03*
X61000Y153500D02*
D03*
X78000D02*
D03*
X236500Y176000D02*
D03*
X253500D02*
D03*
X169000Y193000D02*
D03*
X186000D02*
D03*
X190500Y157000D02*
D03*
X207500D02*
D03*
X240000Y164000D02*
D03*
X223000D02*
D03*
X264500Y49000D02*
D03*
X281500D02*
D03*
X184000Y29000D02*
D03*
X201000D02*
D03*
X155000Y104000D02*
D03*
X138000D02*
D03*
X154500Y86000D02*
D03*
X137500D02*
D03*
D15*
X355500Y85950D02*
Y94000D01*
X336550Y67000D02*
X355500Y85950D01*
X280746Y67000D02*
X336550D01*
X355000Y111000D02*
X362000D01*
X340000Y96000D02*
X355000Y111000D01*
X340000Y85000D02*
Y96000D01*
X275000Y85000D02*
X318000D01*
X273000Y83000D02*
X275000Y85000D01*
X318000D02*
X322000Y81000D01*
X336000D01*
X340000Y85000D01*
X362000Y171000D02*
X363000Y172000D01*
X359000Y163000D02*
Y174051D01*
Y163000D02*
X362000Y160000D01*
X241000Y114000D02*
X244000Y117000D01*
X229000Y151000D02*
X231000Y153000D01*
X244000Y145000D02*
X247500Y148500D01*
X244000Y131000D02*
Y145000D01*
X269908Y167000D02*
X334143D01*
X271979Y172000D02*
X337000D01*
X251479Y192500D02*
X271979Y172000D01*
X260908Y176000D02*
X269908Y167000D01*
X255000Y176000D02*
X260908D01*
X227000Y183000D02*
X235000Y175000D01*
X213000Y183000D02*
X227000D01*
X229000Y131000D02*
Y151000D01*
X319000Y158000D02*
X335000D01*
X330000Y149686D02*
X336000Y143686D01*
X146000Y142000D02*
X165000Y123000D01*
X114000Y142000D02*
X146000D01*
X336000Y123000D02*
Y143686D01*
X326000Y113000D02*
X336000Y123000D01*
X335000Y158000D02*
X341000Y152000D01*
Y120929D02*
Y152000D01*
X323071Y103000D02*
X341000Y120929D01*
X334143Y167000D02*
X346000Y155143D01*
Y118858D02*
Y155143D01*
X325142Y98000D02*
X346000Y118858D01*
X337000Y172000D02*
X351000Y158000D01*
Y116521D02*
Y158000D01*
X331000Y96521D02*
X351000Y116521D01*
X331000Y89000D02*
Y96521D01*
X319000Y118000D02*
X328499Y127500D01*
X262000Y118000D02*
X319000D01*
X262000Y98000D02*
X325142D01*
X262000Y103000D02*
X323071D01*
X262000Y113000D02*
X326000D01*
X274746Y73000D02*
X280746Y67000D01*
X262000Y73000D02*
X274746D01*
X244000Y117000D02*
Y131000D01*
X147000Y42000D02*
X170000Y19000D01*
X65500Y42000D02*
X147000D01*
X57500Y50000D02*
X65500Y42000D01*
X84000Y63000D02*
X95000D01*
X229000Y23001D02*
X237000Y15000D01*
X229000Y23001D02*
Y31314D01*
X170000Y19000D02*
X209000D01*
X83500Y82000D02*
X94000Y92500D01*
X81500Y82000D02*
X83500D01*
X181000Y63000D02*
X194000D01*
X171000Y108000D02*
X181000D01*
X165000Y114000D02*
X171000Y108000D01*
X94000D02*
Y136500D01*
X165000Y114000D02*
Y123000D01*
X94000Y92500D02*
Y108000D01*
X81750Y165750D02*
X94000Y153500D01*
X81750Y165750D02*
Y170000D01*
X56000Y66500D02*
Y82000D01*
X282000Y17500D02*
X297500D01*
X299000Y19000D01*
X358000Y57000D02*
Y72000D01*
X129000Y167000D02*
X138000D01*
X174000Y131000D01*
X194000D01*
X196000Y65000D02*
X249000D01*
X194000Y63000D02*
X196000Y65000D01*
X299000Y43000D02*
Y56000D01*
X256000Y31000D02*
X266750Y19750D01*
X229000Y31314D02*
Y50000D01*
X229000Y31314D02*
X229000Y31314D01*
X224000Y33385D02*
Y50000D01*
X224000Y33385D02*
X224000Y33385D01*
X219000Y35456D02*
X219000Y35456D01*
Y50000D01*
X209000Y19000D02*
X219000Y29000D01*
Y35456D01*
X220000Y16000D02*
X224000Y20000D01*
Y33385D01*
X267000Y32000D02*
X270000D01*
X244000Y32313D02*
Y50000D01*
X249000D02*
X267000Y32000D01*
X256000Y30500D02*
Y31000D01*
Y30500D02*
Y31000D01*
X244000Y32313D02*
X248000Y28313D01*
Y19000D02*
Y28313D01*
Y19000D02*
X251000Y16000D01*
X58000Y108000D02*
X94000D01*
X197000Y206000D02*
Y206000D01*
X190000Y174000D02*
X195000D01*
X207500Y161500D01*
Y156000D02*
Y161500D01*
X186000Y193000D02*
X203000D01*
X213000Y183000D01*
X265000Y83000D02*
X273000D01*
X262000Y98000D02*
X262000Y98000D01*
X168000Y63000D02*
X181000D01*
X167000Y62000D02*
X168000Y63000D01*
X236000Y192500D02*
X237500Y194000D01*
X362000Y128000D02*
Y143000D01*
X262000Y73000D02*
X262000Y73000D01*
X236000Y192500D02*
X251479D01*
X124000Y78000D02*
X127000D01*
X134000Y71000D02*
X137000D01*
Y68500D02*
Y71000D01*
Y68500D02*
X143500Y62000D01*
X167000D01*
D16*
X239000Y131000D02*
Y161000D01*
X211999Y113000D02*
X215000Y110000D01*
X181000Y113000D02*
X211999D01*
X273000Y68000D02*
X281500Y59500D01*
X262000Y68000D02*
X273000D01*
X188000Y144000D02*
X199000D01*
X181000Y98000D02*
X200000D01*
X154500Y71500D02*
Y86000D01*
X162000D01*
X169000Y93000D01*
X181000D01*
X57500Y35000D02*
Y48000D01*
X199000Y131000D02*
Y144000D01*
X199000Y144000D02*
X199000Y144000D01*
X209000Y131000D02*
Y154500D01*
X204000Y131000D02*
Y145421D01*
X200881Y148540D02*
X204000Y145421D01*
X190500Y153500D02*
Y156000D01*
Y153500D02*
X195460Y148540D01*
X200881D01*
X181000Y118000D02*
X213000D01*
X194000Y50000D02*
Y63000D01*
Y40000D02*
Y50000D01*
X185000Y31000D02*
X194000Y40000D01*
X199000Y34000D02*
Y50000D01*
Y34000D02*
X202000Y31000D01*
X156000Y103000D02*
X181000D01*
X262000Y51500D02*
X264500Y49000D01*
X262000Y51500D02*
Y63000D01*
X281500Y49000D02*
Y59500D01*
X155000Y104000D02*
Y119000D01*
X165000Y98000D02*
X181000D01*
X162000Y95000D02*
X165000Y98000D01*
X133000Y95000D02*
X162000D01*
X124000Y104000D02*
X133000Y95000D01*
X124000Y104000D02*
Y108000D01*
X94000Y153500D02*
X143246D01*
X178746Y118000D01*
X78000Y153500D02*
X94000D01*
X251000Y63000D02*
X262000D01*
X249000Y65000D02*
X251000Y63000D01*
X249000Y65000D02*
Y131000D01*
X202000Y31000D02*
X205000D01*
X214000Y40000D01*
Y50000D01*
X177000Y155000D02*
X188000Y144000D01*
X124000Y108000D02*
X128000D01*
X132000Y104000D01*
X138000D01*
X223000Y158000D02*
Y161000D01*
X249500Y131500D02*
X259000D01*
X247500Y148500D02*
X259000D01*
X172000Y155000D02*
X177000D01*
X219000Y154000D02*
X223000Y158000D01*
X219000Y131000D02*
Y154000D01*
X213000Y118000D02*
X219000D01*
Y131000D01*
X213000Y118000D02*
X214000Y119000D01*
Y131000D01*
X224000Y115000D02*
Y131000D01*
X219000Y110000D02*
X224000Y115000D01*
X215000Y110000D02*
X219000D01*
X262000Y78000D02*
X279000D01*
X281000Y76000D01*
X284000D01*
D17*
X358000Y178000D02*
X363000Y173000D01*
X354000Y181000D02*
X358000Y177000D01*
X337000Y181000D02*
X354000D01*
X319500Y189000D02*
X327500Y181000D01*
X296000Y180000D02*
X296500Y179500D01*
X313000Y199000D02*
X337000D01*
X340000Y23000D02*
X359000D01*
X337000Y41000D02*
X358000D01*
X337000Y41000D02*
X337000Y41000D01*
X318000Y19000D02*
X322000Y23000D01*
X337000D01*
X318000Y43000D02*
X333000Y58000D01*
X342000D01*
X282000Y34500D02*
Y48500D01*
X308500Y31500D02*
Y43000D01*
X285000Y31500D02*
X308500D01*
X322750D01*
X332250Y41000D01*
X337000D01*
Y199000D02*
X356000D01*
X358000Y174051D02*
Y177000D01*
X214000Y205000D02*
X215000Y206000D01*
X197000D02*
X215000D01*
X169000Y198000D02*
X177000Y206000D01*
X197000D01*
X169000Y193000D02*
Y198000D01*
X296500Y179500D02*
X297000Y180000D01*
X285000Y204000D02*
X290500Y198500D01*
X296500D01*
X327500Y181000D02*
X337000D01*
X358000Y177000D02*
X363000Y172000D01*
X215000Y206000D02*
X274000D01*
X276000Y204000D01*
X279000D01*
X127000Y78000D02*
X134000Y71000D01*
D18*
X358000Y197000D02*
D03*
X100000Y191000D02*
D03*
X141000D02*
D03*
X25000Y195000D02*
D03*
Y25000D02*
D03*
X100000D02*
D03*
X140000D02*
D03*
D19*
X270000Y186000D02*
D03*
X360000Y40000D02*
D03*
X203000Y28000D02*
D03*
D20*
X124000Y106000D02*
D03*
D21*
X317314Y138686D02*
D03*
X231000Y153000D02*
D03*
X319000Y158000D02*
D03*
X330000Y149686D02*
D03*
X131000Y124000D02*
D03*
X114000Y142000D02*
D03*
X327999Y128000D02*
D03*
X331000Y89000D02*
D03*
X362000Y143000D02*
D03*
X363000Y173000D02*
D03*
X168000Y43000D02*
D03*
X84000Y63000D02*
D03*
X124000Y78000D02*
D03*
X342000Y58000D02*
D03*
X358000Y57000D02*
D03*
X129000Y167000D02*
D03*
X299000Y56000D02*
D03*
X270000Y32000D02*
D03*
X237000Y15000D02*
D03*
X220000Y16000D02*
D03*
X256000Y31000D02*
D03*
X197000Y206000D02*
D03*
X206000Y97000D02*
D03*
Y77000D02*
D03*
X233000D02*
D03*
Y97000D02*
D03*
X251000Y148500D02*
D03*
X215000Y110000D02*
D03*
X284000Y76000D02*
D03*
D22*
X95000Y63000D02*
D03*
X115000D02*
D03*
D23*
X299000Y19000D02*
D03*
X318000D02*
D03*
Y43000D02*
D03*
X308500D02*
D03*
X299000D02*
D03*
D24*
X181000Y63000D02*
D03*
Y68000D02*
D03*
Y73000D02*
D03*
Y78000D02*
D03*
Y83000D02*
D03*
Y88000D02*
D03*
Y93000D02*
D03*
Y98000D02*
D03*
Y103000D02*
D03*
Y108000D02*
D03*
Y113000D02*
D03*
Y118000D02*
D03*
X262000D02*
D03*
Y113000D02*
D03*
Y108000D02*
D03*
Y103000D02*
D03*
Y98000D02*
D03*
Y93000D02*
D03*
Y88000D02*
D03*
Y83000D02*
D03*
Y78000D02*
D03*
Y73000D02*
D03*
Y68000D02*
D03*
Y63000D02*
D03*
D25*
X194000Y131000D02*
D03*
X199000D02*
D03*
X204000D02*
D03*
X209000D02*
D03*
X214000D02*
D03*
X219000D02*
D03*
X224000D02*
D03*
X229000D02*
D03*
X234000D02*
D03*
X239000D02*
D03*
X244000D02*
D03*
X249000D02*
D03*
Y50000D02*
D03*
X244000D02*
D03*
X239000D02*
D03*
X234000D02*
D03*
X229000D02*
D03*
X224000D02*
D03*
X219000D02*
D03*
X214000D02*
D03*
X209000D02*
D03*
X204000D02*
D03*
X199000D02*
D03*
X194000D02*
D03*
D26*
X319500Y189000D02*
D03*
X296500Y198500D02*
D03*
Y179500D02*
D03*
X213000Y183000D02*
D03*
Y202000D02*
D03*
X236000Y192500D02*
D03*
D27*
X81750Y82000D02*
D03*
X58250D02*
D03*
X79750Y170000D02*
D03*
X56250D02*
D03*
X58000Y34000D02*
D03*
X81500D02*
D03*
D28*
X94000Y108000D02*
D03*
D29*
X358000Y41000D02*
D03*
X364000Y21000D02*
D03*
X358000Y197000D02*
D03*
X364000Y177000D02*
D03*
Y72000D02*
D03*
Y94000D02*
D03*
D30*
X337000Y23000D02*
D03*
Y41000D02*
D03*
Y199000D02*
D03*
Y181000D02*
D03*
X279000Y204000D02*
D03*
Y186000D02*
D03*
D31*
X172000Y155000D02*
D03*
X195000Y174000D02*
D03*
D32*
X300000Y186000D02*
X313000Y199000D01*
X295000Y181000D02*
Y186000D01*
X279000D02*
X295000D01*
X300000D01*
M02*
