G04 Layer_Color=16711935*
%FSLAX44Y44*%
%MOMM*%
G71*
G01*
G75*
G04:AMPARAMS|DCode=35|XSize=1.2032mm|YSize=1.1032mm|CornerRadius=0.2141mm|HoleSize=0mm|Usage=FLASHONLY|Rotation=0.000|XOffset=0mm|YOffset=0mm|HoleType=Round|Shape=RoundedRectangle|*
%AMROUNDEDRECTD35*
21,1,1.2032,0.6750,0,0,0.0*
21,1,0.7750,1.1032,0,0,0.0*
1,1,0.4282,0.3875,-0.3375*
1,1,0.4282,-0.3875,-0.3375*
1,1,0.4282,-0.3875,0.3375*
1,1,0.4282,0.3875,0.3375*
%
%ADD35ROUNDEDRECTD35*%
G04:AMPARAMS|DCode=37|XSize=1.2032mm|YSize=1.1032mm|CornerRadius=0.2141mm|HoleSize=0mm|Usage=FLASHONLY|Rotation=90.000|XOffset=0mm|YOffset=0mm|HoleType=Round|Shape=RoundedRectangle|*
%AMROUNDEDRECTD37*
21,1,1.2032,0.6750,0,0,90.0*
21,1,0.7750,1.1032,0,0,90.0*
1,1,0.4282,0.3375,0.3875*
1,1,0.4282,0.3375,-0.3875*
1,1,0.4282,-0.3375,-0.3875*
1,1,0.4282,-0.3375,0.3875*
%
%ADD37ROUNDEDRECTD37*%
%ADD40C,1.7272*%
%ADD41C,1.2032*%
%ADD42C,1.4032*%
%ADD43C,1.1032*%
G04:AMPARAMS|DCode=44|XSize=1.5032mm|YSize=1.0032mm|CornerRadius=0.2016mm|HoleSize=0mm|Usage=FLASHONLY|Rotation=270.000|XOffset=0mm|YOffset=0mm|HoleType=Round|Shape=RoundedRectangle|*
%AMROUNDEDRECTD44*
21,1,1.5032,0.6000,0,0,270.0*
21,1,1.1000,1.0032,0,0,270.0*
1,1,0.4032,-0.3000,-0.5500*
1,1,0.4032,-0.3000,0.5500*
1,1,0.4032,0.3000,0.5500*
1,1,0.4032,0.3000,-0.5500*
%
%ADD44ROUNDEDRECTD44*%
%ADD45R,0.8532X1.3032*%
%ADD46O,2.0032X0.5032*%
%ADD47O,0.5032X2.0032*%
G04:AMPARAMS|DCode=48|XSize=0.8032mm|YSize=1.2032mm|CornerRadius=0.1766mm|HoleSize=0mm|Usage=FLASHONLY|Rotation=90.000|XOffset=0mm|YOffset=0mm|HoleType=Round|Shape=RoundedRectangle|*
%AMROUNDEDRECTD48*
21,1,0.8032,0.8500,0,0,90.0*
21,1,0.4500,1.2032,0,0,90.0*
1,1,0.3532,0.4250,0.2250*
1,1,0.3532,0.4250,-0.2250*
1,1,0.3532,-0.4250,-0.2250*
1,1,0.3532,-0.4250,0.2250*
%
%ADD48ROUNDEDRECTD48*%
%ADD49R,1.6532X0.7532*%
%ADD50R,2.2032X3.2032*%
%ADD51R,2.2032X1.7032*%
G04:AMPARAMS|DCode=52|XSize=1.6032mm|YSize=1.2032mm|CornerRadius=0.2266mm|HoleSize=0mm|Usage=FLASHONLY|Rotation=180.000|XOffset=0mm|YOffset=0mm|HoleType=Round|Shape=RoundedRectangle|*
%AMROUNDEDRECTD52*
21,1,1.6032,0.7500,0,0,180.0*
21,1,1.1500,1.2032,0,0,180.0*
1,1,0.4532,-0.5750,0.3750*
1,1,0.4532,0.5750,0.3750*
1,1,0.4532,0.5750,-0.3750*
1,1,0.4532,-0.5750,-0.3750*
%
%ADD52ROUNDEDRECTD52*%
%ADD53C,1.7032*%
G36*
X41000Y93000D02*
X7000D01*
Y123000D01*
X41000D01*
Y93000D01*
D02*
G37*
D35*
X282000Y34500D02*
D03*
Y17500D02*
D03*
X362000Y160000D02*
D03*
Y143000D02*
D03*
X56000Y49500D02*
D03*
Y66500D02*
D03*
X94000Y153500D02*
D03*
Y136500D02*
D03*
X362000Y128000D02*
D03*
Y111000D02*
D03*
X259000Y131500D02*
D03*
Y148500D02*
D03*
D37*
X251000Y16000D02*
D03*
X268000D02*
D03*
X155000Y119000D02*
D03*
X138000D02*
D03*
X154000Y71000D02*
D03*
X137000D02*
D03*
X61000Y153500D02*
D03*
X78000D02*
D03*
X236500Y176000D02*
D03*
X253500D02*
D03*
X169000Y193000D02*
D03*
X186000D02*
D03*
X190500Y157000D02*
D03*
X207500D02*
D03*
X240000Y164000D02*
D03*
X223000D02*
D03*
X264500Y49000D02*
D03*
X281500D02*
D03*
X184000Y29000D02*
D03*
X201000D02*
D03*
X155000Y104000D02*
D03*
X138000D02*
D03*
X154500Y86000D02*
D03*
X137500D02*
D03*
D40*
X358000Y197000D02*
D03*
X100000Y191000D02*
D03*
X141000D02*
D03*
X25000Y195000D02*
D03*
Y25000D02*
D03*
X100000D02*
D03*
X140000D02*
D03*
D41*
X270000Y186000D02*
D03*
X360000Y40000D02*
D03*
X203000Y28000D02*
D03*
D42*
X124000Y106000D02*
D03*
D43*
X317314Y138686D02*
D03*
X231000Y153000D02*
D03*
X319000Y158000D02*
D03*
X330000Y149686D02*
D03*
X131000Y124000D02*
D03*
X114000Y142000D02*
D03*
X327999Y128000D02*
D03*
X331000Y89000D02*
D03*
X362000Y143000D02*
D03*
X363000Y173000D02*
D03*
X168000Y43000D02*
D03*
X84000Y63000D02*
D03*
X124000Y78000D02*
D03*
X342000Y58000D02*
D03*
X358000Y57000D02*
D03*
X129000Y167000D02*
D03*
X299000Y56000D02*
D03*
X270000Y32000D02*
D03*
X237000Y15000D02*
D03*
X220000Y16000D02*
D03*
X256000Y31000D02*
D03*
X197000Y206000D02*
D03*
X206000Y97000D02*
D03*
Y77000D02*
D03*
X233000D02*
D03*
Y97000D02*
D03*
X251000Y148500D02*
D03*
X215000Y110000D02*
D03*
X284000Y76000D02*
D03*
D44*
X95000Y63000D02*
D03*
X115000D02*
D03*
D45*
X299000Y19000D02*
D03*
X318000D02*
D03*
Y43000D02*
D03*
X308500D02*
D03*
X299000D02*
D03*
D46*
X181000Y63000D02*
D03*
Y68000D02*
D03*
Y73000D02*
D03*
Y78000D02*
D03*
Y83000D02*
D03*
Y88000D02*
D03*
Y93000D02*
D03*
Y98000D02*
D03*
Y103000D02*
D03*
Y108000D02*
D03*
Y113000D02*
D03*
Y118000D02*
D03*
X262000D02*
D03*
Y113000D02*
D03*
Y108000D02*
D03*
Y103000D02*
D03*
Y98000D02*
D03*
Y93000D02*
D03*
Y88000D02*
D03*
Y83000D02*
D03*
Y78000D02*
D03*
Y73000D02*
D03*
Y68000D02*
D03*
Y63000D02*
D03*
D47*
X194000Y131000D02*
D03*
X199000D02*
D03*
X204000D02*
D03*
X209000D02*
D03*
X214000D02*
D03*
X219000D02*
D03*
X224000D02*
D03*
X229000D02*
D03*
X234000D02*
D03*
X239000D02*
D03*
X244000D02*
D03*
X249000D02*
D03*
Y50000D02*
D03*
X244000D02*
D03*
X239000D02*
D03*
X234000D02*
D03*
X229000D02*
D03*
X224000D02*
D03*
X219000D02*
D03*
X214000D02*
D03*
X209000D02*
D03*
X204000D02*
D03*
X199000D02*
D03*
X194000D02*
D03*
D48*
X319500Y189000D02*
D03*
X296500Y198500D02*
D03*
Y179500D02*
D03*
X213000Y183000D02*
D03*
Y202000D02*
D03*
X236000Y192500D02*
D03*
D49*
X81750Y82000D02*
D03*
X58250D02*
D03*
X79750Y170000D02*
D03*
X56250D02*
D03*
X58000Y34000D02*
D03*
X81500D02*
D03*
D50*
X94000Y108000D02*
D03*
D51*
X358000Y41000D02*
D03*
X364000Y21000D02*
D03*
X358000Y197000D02*
D03*
X364000Y177000D02*
D03*
Y72000D02*
D03*
Y94000D02*
D03*
D52*
X337000Y23000D02*
D03*
Y41000D02*
D03*
Y199000D02*
D03*
Y181000D02*
D03*
X279000Y204000D02*
D03*
Y186000D02*
D03*
D53*
X172000Y155000D02*
D03*
X195000Y174000D02*
D03*
M02*
