G04 Layer_Color=8388736*
%FSLAX44Y44*%
%MOMM*%
G71*
G01*
G75*
G04:AMPARAMS|DCode=35|XSize=1.2032mm|YSize=1.1032mm|CornerRadius=0.2141mm|HoleSize=0mm|Usage=FLASHONLY|Rotation=0.000|XOffset=0mm|YOffset=0mm|HoleType=Round|Shape=RoundedRectangle|*
%AMROUNDEDRECTD35*
21,1,1.2032,0.6750,0,0,0.0*
21,1,0.7750,1.1032,0,0,0.0*
1,1,0.4282,0.3875,-0.3375*
1,1,0.4282,-0.3875,-0.3375*
1,1,0.4282,-0.3875,0.3375*
1,1,0.4282,0.3875,0.3375*
%
%ADD35ROUNDEDRECTD35*%
%ADD36R,2.6032X1.5032*%
G04:AMPARAMS|DCode=37|XSize=1.2032mm|YSize=1.1032mm|CornerRadius=0.2141mm|HoleSize=0mm|Usage=FLASHONLY|Rotation=90.000|XOffset=0mm|YOffset=0mm|HoleType=Round|Shape=RoundedRectangle|*
%AMROUNDEDRECTD37*
21,1,1.2032,0.6750,0,0,90.0*
21,1,0.7750,1.1032,0,0,90.0*
1,1,0.4282,0.3375,0.3875*
1,1,0.4282,0.3375,-0.3875*
1,1,0.4282,-0.3375,-0.3875*
1,1,0.4282,-0.3375,0.3875*
%
%ADD37ROUNDEDRECTD37*%
%ADD38R,3.7032X0.6032*%
%ADD39O,3.7032X0.6032*%
%ADD40C,1.7272*%
%ADD41C,1.2032*%
%ADD42C,1.4032*%
%ADD43C,1.1032*%
D35*
X264000Y110000D02*
D03*
Y93000D02*
D03*
X251000Y120500D02*
D03*
Y103500D02*
D03*
D36*
X102500Y125500D02*
D03*
Y170500D02*
D03*
X27500D02*
D03*
Y125500D02*
D03*
Y90500D02*
D03*
Y45500D02*
D03*
X102500D02*
D03*
Y90500D02*
D03*
D37*
X141500Y47000D02*
D03*
X124500D02*
D03*
D38*
X289000Y171000D02*
D03*
Y108000D02*
D03*
D39*
Y164000D02*
D03*
Y157000D02*
D03*
Y150000D02*
D03*
Y143000D02*
D03*
Y136000D02*
D03*
Y129000D02*
D03*
Y122000D02*
D03*
Y115000D02*
D03*
Y101000D02*
D03*
Y94000D02*
D03*
Y87000D02*
D03*
D40*
X358000Y197000D02*
D03*
X100000Y191000D02*
D03*
X141000D02*
D03*
X25000Y195000D02*
D03*
Y25000D02*
D03*
X100000D02*
D03*
X140000D02*
D03*
D41*
X270000Y186000D02*
D03*
X360000Y40000D02*
D03*
X203000Y28000D02*
D03*
D42*
X124000Y106000D02*
D03*
D43*
X317314Y138686D02*
D03*
X231000Y153000D02*
D03*
X319000Y158000D02*
D03*
X330000Y149686D02*
D03*
X131000Y124000D02*
D03*
X114000Y142000D02*
D03*
X327999Y128000D02*
D03*
X331000Y89000D02*
D03*
X362000Y143000D02*
D03*
X363000Y173000D02*
D03*
X168000Y43000D02*
D03*
X84000Y63000D02*
D03*
X124000Y78000D02*
D03*
X342000Y58000D02*
D03*
X358000Y57000D02*
D03*
X129000Y167000D02*
D03*
X299000Y56000D02*
D03*
X270000Y32000D02*
D03*
X237000Y15000D02*
D03*
X220000Y16000D02*
D03*
X256000Y31000D02*
D03*
X197000Y206000D02*
D03*
X206000Y97000D02*
D03*
Y77000D02*
D03*
X233000D02*
D03*
Y97000D02*
D03*
X251000Y148500D02*
D03*
X215000Y110000D02*
D03*
X284000Y76000D02*
D03*
M02*
