G04 Layer_Color=65535*
%FSLAX44Y44*%
%MOMM*%
G71*
G01*
G75*
%ADD15C,0.3000*%
%ADD16C,0.2540*%
%ADD33C,0.1270*%
%ADD34C,0.2000*%
G36*
X108162Y6000D02*
X106866D01*
Y15755D01*
X108162D01*
Y6000D01*
D02*
G37*
G36*
X100310Y7156D02*
X105118D01*
Y6000D01*
X99014D01*
Y15755D01*
X100310D01*
Y7156D01*
D02*
G37*
G36*
X96786Y6000D02*
X95489D01*
Y15755D01*
X96786D01*
Y6000D01*
D02*
G37*
G36*
X155853Y15783D02*
X155965Y15769D01*
X156106Y15755D01*
X156262Y15727D01*
X156417Y15699D01*
X156783Y15600D01*
X157150Y15459D01*
X157333Y15374D01*
X157516Y15276D01*
X157685Y15149D01*
X157840Y15008D01*
X157854Y14994D01*
X157883Y14980D01*
X157911Y14923D01*
X157967Y14867D01*
X158038Y14797D01*
X158108Y14698D01*
X158179Y14599D01*
X158263Y14472D01*
X158404Y14204D01*
X158545Y13866D01*
X158602Y13697D01*
X158630Y13500D01*
X158658Y13302D01*
X158672Y13091D01*
Y13063D01*
Y12992D01*
X158658Y12879D01*
X158644Y12724D01*
X158616Y12555D01*
X158559Y12358D01*
X158503Y12146D01*
X158418Y11935D01*
X158404Y11907D01*
X158376Y11836D01*
X158320Y11723D01*
X158235Y11568D01*
X158122Y11399D01*
X157981Y11188D01*
X157812Y10976D01*
X157615Y10737D01*
X157587Y10708D01*
X157516Y10624D01*
X157446Y10553D01*
X157375Y10483D01*
X157291Y10398D01*
X157178Y10286D01*
X157065Y10173D01*
X156924Y10046D01*
X156783Y9905D01*
X156614Y9750D01*
X156431Y9595D01*
X156233Y9412D01*
X156008Y9228D01*
X155782Y9031D01*
X155768Y9017D01*
X155740Y8989D01*
X155683Y8946D01*
X155613Y8890D01*
X155528Y8805D01*
X155430Y8721D01*
X155204Y8537D01*
X154965Y8326D01*
X154739Y8115D01*
X154542Y7931D01*
X154457Y7861D01*
X154387Y7790D01*
X154373Y7776D01*
X154330Y7734D01*
X154274Y7678D01*
X154203Y7593D01*
X154133Y7494D01*
X154048Y7396D01*
X153879Y7156D01*
X158686D01*
Y6000D01*
X152216D01*
Y6014D01*
Y6071D01*
Y6155D01*
X152230Y6268D01*
X152244Y6395D01*
X152272Y6536D01*
X152300Y6677D01*
X152357Y6832D01*
Y6846D01*
X152371Y6860D01*
X152399Y6945D01*
X152455Y7071D01*
X152540Y7240D01*
X152653Y7438D01*
X152794Y7663D01*
X152949Y7889D01*
X153146Y8129D01*
Y8143D01*
X153174Y8157D01*
X153245Y8241D01*
X153372Y8368D01*
X153555Y8551D01*
X153766Y8763D01*
X154034Y9017D01*
X154358Y9299D01*
X154711Y9595D01*
X154725Y9609D01*
X154781Y9651D01*
X154866Y9722D01*
X154965Y9806D01*
X155091Y9919D01*
X155246Y10046D01*
X155402Y10187D01*
X155585Y10342D01*
X155937Y10680D01*
X156290Y11019D01*
X156459Y11188D01*
X156614Y11357D01*
X156755Y11512D01*
X156868Y11667D01*
Y11681D01*
X156896Y11695D01*
X156924Y11738D01*
X156952Y11794D01*
X157051Y11949D01*
X157164Y12132D01*
X157262Y12358D01*
X157361Y12597D01*
X157417Y12865D01*
X157446Y13119D01*
Y13133D01*
Y13147D01*
X157432Y13232D01*
X157417Y13373D01*
X157375Y13528D01*
X157319Y13725D01*
X157220Y13922D01*
X157093Y14120D01*
X156924Y14317D01*
X156896Y14345D01*
X156825Y14402D01*
X156727Y14472D01*
X156572Y14571D01*
X156374Y14655D01*
X156149Y14740D01*
X155881Y14797D01*
X155585Y14811D01*
X155500D01*
X155444Y14797D01*
X155275Y14782D01*
X155077Y14740D01*
X154866Y14684D01*
X154626Y14585D01*
X154401Y14458D01*
X154189Y14289D01*
X154161Y14261D01*
X154105Y14190D01*
X154020Y14078D01*
X153935Y13908D01*
X153837Y13711D01*
X153752Y13457D01*
X153696Y13175D01*
X153668Y12851D01*
X152441Y12978D01*
Y12992D01*
X152455Y13034D01*
Y13105D01*
X152469Y13204D01*
X152498Y13316D01*
X152526Y13443D01*
X152568Y13598D01*
X152610Y13753D01*
X152723Y14092D01*
X152892Y14430D01*
X152991Y14599D01*
X153118Y14768D01*
X153245Y14923D01*
X153386Y15064D01*
X153400Y15079D01*
X153428Y15093D01*
X153470Y15135D01*
X153541Y15177D01*
X153625Y15234D01*
X153724Y15290D01*
X153837Y15360D01*
X153978Y15431D01*
X154133Y15501D01*
X154302Y15572D01*
X154485Y15628D01*
X154683Y15685D01*
X154894Y15727D01*
X155120Y15769D01*
X155359Y15783D01*
X155613Y15797D01*
X155754D01*
X155853Y15783D01*
D02*
G37*
G36*
X136681Y6000D02*
X135215D01*
X134073Y8960D01*
X129985D01*
X128927Y6000D01*
X127560D01*
X131282Y15755D01*
X132691D01*
X136681Y6000D01*
D02*
G37*
G36*
X118496D02*
X117030D01*
X115888Y8960D01*
X111800D01*
X110742Y6000D01*
X109375D01*
X113097Y15755D01*
X114506D01*
X118496Y6000D01*
D02*
G37*
G36*
X47983Y15741D02*
X48222Y15727D01*
X48476Y15713D01*
X48716Y15685D01*
X48927Y15656D01*
X48955D01*
X49054Y15628D01*
X49181Y15600D01*
X49350Y15558D01*
X49533Y15487D01*
X49731Y15403D01*
X49942Y15304D01*
X50125Y15191D01*
X50153Y15177D01*
X50210Y15135D01*
X50294Y15050D01*
X50407Y14952D01*
X50534Y14825D01*
X50661Y14655D01*
X50802Y14472D01*
X50915Y14261D01*
X50929Y14233D01*
X50957Y14162D01*
X51013Y14035D01*
X51070Y13866D01*
X51112Y13669D01*
X51168Y13443D01*
X51197Y13190D01*
X51211Y12922D01*
Y12908D01*
Y12865D01*
Y12809D01*
X51197Y12710D01*
X51182Y12612D01*
X51168Y12485D01*
X51140Y12344D01*
X51112Y12189D01*
X51013Y11864D01*
X50957Y11695D01*
X50872Y11512D01*
X50774Y11329D01*
X50675Y11159D01*
X50548Y10990D01*
X50407Y10821D01*
X50393Y10807D01*
X50365Y10779D01*
X50323Y10737D01*
X50252Y10694D01*
X50167Y10624D01*
X50055Y10553D01*
X49914Y10469D01*
X49759Y10398D01*
X49575Y10314D01*
X49364Y10229D01*
X49138Y10159D01*
X48871Y10102D01*
X48589Y10046D01*
X48278Y10003D01*
X47926Y9975D01*
X47559Y9961D01*
X45064D01*
Y6000D01*
X43767D01*
Y15755D01*
X47771D01*
X47983Y15741D01*
D02*
G37*
G36*
X163437Y15783D02*
X163620Y15755D01*
X163832Y15713D01*
X164057Y15656D01*
X164297Y15586D01*
X164522Y15473D01*
X164536D01*
X164550Y15459D01*
X164621Y15417D01*
X164734Y15346D01*
X164875Y15248D01*
X165030Y15107D01*
X165199Y14952D01*
X165354Y14768D01*
X165509Y14557D01*
X165523Y14529D01*
X165580Y14458D01*
X165636Y14331D01*
X165735Y14148D01*
X165819Y13937D01*
X165932Y13697D01*
X166031Y13415D01*
X166115Y13105D01*
Y13091D01*
X166129Y13063D01*
X166143Y13020D01*
X166158Y12950D01*
X166172Y12865D01*
X166186Y12766D01*
X166214Y12640D01*
X166228Y12499D01*
X166256Y12344D01*
X166270Y12175D01*
X166285Y11977D01*
X166313Y11780D01*
X166327Y11554D01*
Y11329D01*
X166341Y11075D01*
Y10807D01*
Y10793D01*
Y10737D01*
Y10638D01*
Y10525D01*
X166327Y10370D01*
Y10201D01*
X166313Y10018D01*
X166299Y9820D01*
X166256Y9369D01*
X166186Y8904D01*
X166101Y8453D01*
X166045Y8241D01*
X165974Y8030D01*
Y8016D01*
X165960Y7988D01*
X165932Y7931D01*
X165904Y7861D01*
X165876Y7762D01*
X165819Y7663D01*
X165707Y7424D01*
X165565Y7170D01*
X165382Y6888D01*
X165171Y6634D01*
X164917Y6395D01*
X164903D01*
X164889Y6367D01*
X164847Y6338D01*
X164790Y6310D01*
X164720Y6268D01*
X164649Y6211D01*
X164438Y6113D01*
X164184Y6014D01*
X163888Y5915D01*
X163536Y5859D01*
X163155Y5831D01*
X163014D01*
X162915Y5845D01*
X162803Y5859D01*
X162661Y5887D01*
X162507Y5915D01*
X162337Y5958D01*
X162168Y6014D01*
X161985Y6071D01*
X161802Y6155D01*
X161618Y6254D01*
X161435Y6367D01*
X161252Y6507D01*
X161083Y6662D01*
X160928Y6832D01*
X160914Y6846D01*
X160885Y6888D01*
X160843Y6959D01*
X160773Y7071D01*
X160702Y7198D01*
X160632Y7367D01*
X160533Y7565D01*
X160448Y7790D01*
X160364Y8044D01*
X160279Y8340D01*
X160195Y8664D01*
X160124Y9031D01*
X160054Y9426D01*
X160011Y9848D01*
X159983Y10314D01*
X159969Y10807D01*
Y10821D01*
Y10878D01*
Y10976D01*
Y11089D01*
X159983Y11244D01*
Y11413D01*
X159997Y11596D01*
X160011Y11808D01*
X160054Y12245D01*
X160124Y12710D01*
X160209Y13175D01*
X160265Y13387D01*
X160321Y13598D01*
Y13612D01*
X160336Y13641D01*
X160364Y13697D01*
X160392Y13767D01*
X160420Y13866D01*
X160476Y13965D01*
X160589Y14204D01*
X160730Y14458D01*
X160914Y14726D01*
X161125Y14994D01*
X161379Y15219D01*
X161393D01*
X161407Y15248D01*
X161449Y15276D01*
X161506Y15304D01*
X161576Y15360D01*
X161661Y15403D01*
X161872Y15516D01*
X162126Y15614D01*
X162422Y15713D01*
X162774Y15769D01*
X163155Y15797D01*
X163282D01*
X163437Y15783D01*
D02*
G37*
G36*
X67197Y15910D02*
X67323D01*
X67450Y15896D01*
X67620Y15868D01*
X67789Y15840D01*
X68155Y15769D01*
X68578Y15656D01*
X68987Y15487D01*
X69198Y15389D01*
X69410Y15276D01*
X69424Y15262D01*
X69452Y15248D01*
X69509Y15205D01*
X69593Y15163D01*
X69678Y15093D01*
X69791Y15008D01*
X70030Y14811D01*
X70284Y14557D01*
X70566Y14247D01*
X70834Y13880D01*
X71059Y13471D01*
Y13457D01*
X71087Y13415D01*
X71116Y13359D01*
X71144Y13274D01*
X71200Y13161D01*
X71242Y13034D01*
X71299Y12879D01*
X71355Y12710D01*
X71398Y12527D01*
X71454Y12329D01*
X71510Y12104D01*
X71553Y11878D01*
X71609Y11385D01*
X71637Y10849D01*
Y10835D01*
Y10779D01*
Y10708D01*
X71623Y10596D01*
Y10469D01*
X71609Y10314D01*
X71581Y10144D01*
X71567Y9961D01*
X71496Y9552D01*
X71384Y9101D01*
X71228Y8650D01*
X71144Y8425D01*
X71031Y8199D01*
Y8185D01*
X71003Y8143D01*
X70975Y8086D01*
X70918Y8002D01*
X70862Y7903D01*
X70791Y7804D01*
X70594Y7537D01*
X70354Y7255D01*
X70072Y6959D01*
X69734Y6677D01*
X69339Y6423D01*
X69325D01*
X69297Y6395D01*
X69227Y6367D01*
X69142Y6324D01*
X69043Y6282D01*
X68931Y6240D01*
X68790Y6183D01*
X68635Y6127D01*
X68465Y6071D01*
X68282Y6014D01*
X67873Y5929D01*
X67436Y5859D01*
X66971Y5831D01*
X66830D01*
X66746Y5845D01*
X66619D01*
X66478Y5873D01*
X66323Y5887D01*
X66139Y5915D01*
X65759Y6000D01*
X65350Y6113D01*
X64927Y6282D01*
X64716Y6381D01*
X64504Y6493D01*
X64490Y6507D01*
X64462Y6522D01*
X64405Y6564D01*
X64321Y6620D01*
X64236Y6677D01*
X64138Y6761D01*
X63898Y6973D01*
X63630Y7226D01*
X63348Y7537D01*
X63094Y7889D01*
X62855Y8298D01*
Y8312D01*
X62827Y8354D01*
X62798Y8411D01*
X62770Y8495D01*
X62728Y8608D01*
X62686Y8735D01*
X62629Y8876D01*
X62587Y9031D01*
X62531Y9214D01*
X62474Y9397D01*
X62390Y9820D01*
X62333Y10257D01*
X62305Y10737D01*
Y10751D01*
Y10765D01*
Y10849D01*
X62319Y10976D01*
Y11145D01*
X62347Y11343D01*
X62375Y11582D01*
X62418Y11850D01*
X62474Y12132D01*
X62531Y12428D01*
X62615Y12738D01*
X62728Y13048D01*
X62855Y13373D01*
X62996Y13683D01*
X63179Y13993D01*
X63376Y14275D01*
X63602Y14543D01*
X63616Y14557D01*
X63658Y14599D01*
X63743Y14670D01*
X63842Y14754D01*
X63969Y14867D01*
X64124Y14980D01*
X64307Y15107D01*
X64518Y15234D01*
X64744Y15360D01*
X64998Y15487D01*
X65279Y15600D01*
X65575Y15713D01*
X65900Y15797D01*
X66238Y15868D01*
X66590Y15910D01*
X66971Y15924D01*
X67098D01*
X67197Y15910D01*
D02*
G37*
G36*
X89470Y14599D02*
X83704D01*
Y11625D01*
X89103D01*
Y10469D01*
X83704D01*
Y7156D01*
X89696D01*
Y6000D01*
X82407D01*
Y15755D01*
X89470D01*
Y14599D01*
D02*
G37*
G36*
X77177Y15741D02*
X77290D01*
X77544Y15713D01*
X77826Y15685D01*
X78122Y15628D01*
X78418Y15558D01*
X78686Y15459D01*
X78700D01*
X78714Y15445D01*
X78798Y15403D01*
X78925Y15332D01*
X79066Y15234D01*
X79236Y15107D01*
X79419Y14952D01*
X79588Y14754D01*
X79743Y14543D01*
X79757Y14515D01*
X79799Y14430D01*
X79870Y14317D01*
X79940Y14148D01*
X80011Y13951D01*
X80081Y13739D01*
X80124Y13500D01*
X80138Y13260D01*
Y13232D01*
Y13161D01*
X80124Y13034D01*
X80095Y12879D01*
X80053Y12696D01*
X79983Y12499D01*
X79898Y12301D01*
X79785Y12090D01*
X79771Y12062D01*
X79729Y12005D01*
X79644Y11892D01*
X79531Y11780D01*
X79391Y11639D01*
X79221Y11484D01*
X79010Y11343D01*
X78770Y11202D01*
X78784D01*
X78813Y11188D01*
X78855Y11174D01*
X78911Y11145D01*
X79080Y11089D01*
X79278Y10990D01*
X79489Y10863D01*
X79729Y10708D01*
X79940Y10525D01*
X80138Y10300D01*
X80152Y10271D01*
X80208Y10187D01*
X80293Y10060D01*
X80377Y9891D01*
X80462Y9665D01*
X80547Y9426D01*
X80603Y9144D01*
X80617Y8834D01*
Y8819D01*
Y8805D01*
Y8721D01*
X80603Y8580D01*
X80575Y8411D01*
X80547Y8213D01*
X80490Y8002D01*
X80420Y7776D01*
X80321Y7551D01*
X80307Y7523D01*
X80265Y7452D01*
X80208Y7353D01*
X80124Y7212D01*
X80011Y7071D01*
X79898Y6916D01*
X79757Y6761D01*
X79602Y6634D01*
X79588Y6620D01*
X79531Y6578D01*
X79433Y6522D01*
X79306Y6465D01*
X79151Y6381D01*
X78968Y6296D01*
X78770Y6226D01*
X78531Y6155D01*
X78502D01*
X78418Y6127D01*
X78277Y6113D01*
X78094Y6085D01*
X77868Y6056D01*
X77600Y6028D01*
X77304Y6014D01*
X76966Y6000D01*
X73244D01*
Y15755D01*
X77079D01*
X77177Y15741D01*
D02*
G37*
G36*
X57512D02*
X57639D01*
X57935Y15727D01*
X58245Y15685D01*
X58583Y15642D01*
X58893Y15572D01*
X59049Y15530D01*
X59176Y15487D01*
X59190D01*
X59204Y15473D01*
X59288Y15431D01*
X59415Y15374D01*
X59570Y15276D01*
X59739Y15149D01*
X59923Y14980D01*
X60092Y14782D01*
X60261Y14557D01*
Y14543D01*
X60275Y14529D01*
X60331Y14444D01*
X60388Y14303D01*
X60472Y14120D01*
X60543Y13908D01*
X60613Y13655D01*
X60656Y13387D01*
X60670Y13091D01*
Y13077D01*
Y13048D01*
Y12992D01*
X60656Y12922D01*
Y12823D01*
X60642Y12724D01*
X60585Y12485D01*
X60501Y12203D01*
X60388Y11907D01*
X60219Y11611D01*
X60106Y11470D01*
X59993Y11329D01*
X59979Y11315D01*
X59965Y11300D01*
X59923Y11258D01*
X59866Y11216D01*
X59796Y11159D01*
X59711Y11103D01*
X59598Y11033D01*
X59486Y10948D01*
X59345Y10878D01*
X59190Y10807D01*
X59020Y10723D01*
X58837Y10652D01*
X58626Y10596D01*
X58414Y10525D01*
X58175Y10483D01*
X57921Y10440D01*
X57949Y10426D01*
X58005Y10398D01*
X58090Y10342D01*
X58203Y10286D01*
X58457Y10130D01*
X58583Y10032D01*
X58696Y9947D01*
X58724Y9919D01*
X58795Y9848D01*
X58908Y9736D01*
X59049Y9595D01*
X59204Y9397D01*
X59387Y9186D01*
X59570Y8932D01*
X59767Y8650D01*
X61445Y6000D01*
X59838D01*
X58555Y8030D01*
Y8044D01*
X58527Y8072D01*
X58499Y8115D01*
X58457Y8171D01*
X58358Y8326D01*
X58231Y8523D01*
X58076Y8735D01*
X57921Y8960D01*
X57766Y9172D01*
X57625Y9369D01*
X57611Y9383D01*
X57568Y9440D01*
X57498Y9524D01*
X57399Y9623D01*
X57188Y9834D01*
X57075Y9933D01*
X56962Y10018D01*
X56948Y10032D01*
X56920Y10046D01*
X56864Y10074D01*
X56779Y10116D01*
X56694Y10159D01*
X56596Y10201D01*
X56370Y10271D01*
X56356D01*
X56328Y10286D01*
X56272D01*
X56201Y10300D01*
X56102Y10314D01*
X55990D01*
X55834Y10328D01*
X54171D01*
Y6000D01*
X52874D01*
Y15755D01*
X57399D01*
X57512Y15741D01*
D02*
G37*
G36*
X171021Y15783D02*
X171134Y15769D01*
X171275Y15755D01*
X171430Y15727D01*
X171585Y15699D01*
X171952Y15600D01*
X172318Y15459D01*
X172501Y15374D01*
X172684Y15276D01*
X172854Y15149D01*
X173009Y15008D01*
X173023Y14994D01*
X173051Y14980D01*
X173079Y14923D01*
X173136Y14867D01*
X173206Y14797D01*
X173277Y14698D01*
X173347Y14599D01*
X173432Y14472D01*
X173573Y14204D01*
X173714Y13866D01*
X173770Y13697D01*
X173798Y13500D01*
X173826Y13302D01*
X173841Y13091D01*
Y13063D01*
Y12992D01*
X173826Y12879D01*
X173812Y12724D01*
X173784Y12555D01*
X173728Y12358D01*
X173671Y12146D01*
X173587Y11935D01*
X173573Y11907D01*
X173544Y11836D01*
X173488Y11723D01*
X173403Y11568D01*
X173291Y11399D01*
X173150Y11188D01*
X172981Y10976D01*
X172783Y10737D01*
X172755Y10708D01*
X172684Y10624D01*
X172614Y10553D01*
X172544Y10483D01*
X172459Y10398D01*
X172346Y10286D01*
X172233Y10173D01*
X172092Y10046D01*
X171952Y9905D01*
X171782Y9750D01*
X171599Y9595D01*
X171402Y9412D01*
X171176Y9228D01*
X170951Y9031D01*
X170937Y9017D01*
X170908Y8989D01*
X170852Y8946D01*
X170781Y8890D01*
X170697Y8805D01*
X170598Y8721D01*
X170373Y8537D01*
X170133Y8326D01*
X169907Y8115D01*
X169710Y7931D01*
X169625Y7861D01*
X169555Y7790D01*
X169541Y7776D01*
X169499Y7734D01*
X169442Y7678D01*
X169372Y7593D01*
X169301Y7494D01*
X169217Y7396D01*
X169048Y7156D01*
X173855D01*
Y6000D01*
X167384D01*
Y6014D01*
Y6071D01*
Y6155D01*
X167398Y6268D01*
X167412Y6395D01*
X167440Y6536D01*
X167469Y6677D01*
X167525Y6832D01*
Y6846D01*
X167539Y6860D01*
X167567Y6945D01*
X167624Y7071D01*
X167708Y7240D01*
X167821Y7438D01*
X167962Y7663D01*
X168117Y7889D01*
X168314Y8129D01*
Y8143D01*
X168343Y8157D01*
X168413Y8241D01*
X168540Y8368D01*
X168723Y8551D01*
X168935Y8763D01*
X169203Y9017D01*
X169527Y9299D01*
X169879Y9595D01*
X169893Y9609D01*
X169950Y9651D01*
X170034Y9722D01*
X170133Y9806D01*
X170260Y9919D01*
X170415Y10046D01*
X170570Y10187D01*
X170753Y10342D01*
X171106Y10680D01*
X171458Y11019D01*
X171627Y11188D01*
X171782Y11357D01*
X171923Y11512D01*
X172036Y11667D01*
Y11681D01*
X172064Y11695D01*
X172092Y11738D01*
X172121Y11794D01*
X172219Y11949D01*
X172332Y12132D01*
X172431Y12358D01*
X172529Y12597D01*
X172586Y12865D01*
X172614Y13119D01*
Y13133D01*
Y13147D01*
X172600Y13232D01*
X172586Y13373D01*
X172544Y13528D01*
X172487Y13725D01*
X172388Y13922D01*
X172262Y14120D01*
X172092Y14317D01*
X172064Y14345D01*
X171994Y14402D01*
X171895Y14472D01*
X171740Y14571D01*
X171543Y14655D01*
X171317Y14740D01*
X171049Y14797D01*
X170753Y14811D01*
X170669D01*
X170612Y14797D01*
X170443Y14782D01*
X170246Y14740D01*
X170034Y14684D01*
X169795Y14585D01*
X169569Y14458D01*
X169358Y14289D01*
X169329Y14261D01*
X169273Y14190D01*
X169188Y14078D01*
X169104Y13908D01*
X169005Y13711D01*
X168921Y13457D01*
X168864Y13175D01*
X168836Y12851D01*
X167610Y12978D01*
Y12992D01*
X167624Y13034D01*
Y13105D01*
X167638Y13204D01*
X167666Y13316D01*
X167694Y13443D01*
X167736Y13598D01*
X167779Y13753D01*
X167892Y14092D01*
X168061Y14430D01*
X168159Y14599D01*
X168286Y14768D01*
X168413Y14923D01*
X168554Y15064D01*
X168568Y15079D01*
X168596Y15093D01*
X168639Y15135D01*
X168709Y15177D01*
X168794Y15234D01*
X168892Y15290D01*
X169005Y15360D01*
X169146Y15431D01*
X169301Y15501D01*
X169470Y15572D01*
X169654Y15628D01*
X169851Y15685D01*
X170063Y15727D01*
X170288Y15769D01*
X170528Y15783D01*
X170781Y15797D01*
X170922D01*
X171021Y15783D01*
D02*
G37*
G36*
X146986Y6000D02*
X145745D01*
Y14162D01*
X142898Y6000D01*
X141742D01*
X138922Y14303D01*
Y6000D01*
X137682D01*
Y15755D01*
X139613D01*
X141925Y8834D01*
Y8819D01*
X141939Y8791D01*
X141953Y8749D01*
X141981Y8678D01*
X142038Y8509D01*
X142108Y8298D01*
X142179Y8058D01*
X142263Y7818D01*
X142334Y7593D01*
X142390Y7396D01*
X142404Y7424D01*
X142418Y7494D01*
X142460Y7621D01*
X142517Y7790D01*
X142587Y8016D01*
X142686Y8284D01*
X142785Y8594D01*
X142912Y8960D01*
X145252Y15755D01*
X146986D01*
Y6000D01*
D02*
G37*
G36*
X123176Y15910D02*
X123274D01*
X123542Y15882D01*
X123838Y15840D01*
X124149Y15769D01*
X124487Y15685D01*
X124797Y15572D01*
X124811D01*
X124839Y15558D01*
X124882Y15530D01*
X124938Y15501D01*
X125079Y15431D01*
X125262Y15304D01*
X125474Y15163D01*
X125685Y14980D01*
X125883Y14768D01*
X126066Y14529D01*
Y14515D01*
X126080Y14500D01*
X126108Y14458D01*
X126136Y14416D01*
X126207Y14275D01*
X126291Y14092D01*
X126390Y13866D01*
X126461Y13598D01*
X126531Y13316D01*
X126559Y13006D01*
X125319Y12908D01*
Y12922D01*
Y12950D01*
X125304Y12992D01*
X125290Y13063D01*
X125248Y13218D01*
X125192Y13429D01*
X125107Y13655D01*
X124980Y13880D01*
X124825Y14092D01*
X124628Y14289D01*
X124600Y14303D01*
X124529Y14360D01*
X124388Y14444D01*
X124205Y14529D01*
X123965Y14613D01*
X123683Y14698D01*
X123331Y14754D01*
X122936Y14768D01*
X122739D01*
X122654Y14754D01*
X122542Y14740D01*
X122288Y14712D01*
X122006Y14655D01*
X121724Y14585D01*
X121456Y14472D01*
X121343Y14402D01*
X121230Y14331D01*
X121202Y14317D01*
X121146Y14261D01*
X121061Y14162D01*
X120977Y14049D01*
X120878Y13894D01*
X120794Y13725D01*
X120737Y13528D01*
X120709Y13302D01*
Y13274D01*
Y13218D01*
X120723Y13119D01*
X120751Y13006D01*
X120794Y12865D01*
X120864Y12724D01*
X120948Y12583D01*
X121075Y12442D01*
X121089Y12428D01*
X121160Y12386D01*
X121216Y12344D01*
X121273Y12315D01*
X121357Y12273D01*
X121456Y12217D01*
X121583Y12175D01*
X121724Y12118D01*
X121879Y12062D01*
X122062Y11991D01*
X122260Y11935D01*
X122485Y11864D01*
X122739Y11808D01*
X123021Y11738D01*
X123035D01*
X123091Y11723D01*
X123176Y11709D01*
X123274Y11681D01*
X123401Y11653D01*
X123556Y11611D01*
X123712Y11568D01*
X123881Y11526D01*
X124247Y11427D01*
X124600Y11329D01*
X124769Y11272D01*
X124924Y11216D01*
X125065Y11174D01*
X125178Y11117D01*
X125192D01*
X125220Y11103D01*
X125262Y11075D01*
X125319Y11047D01*
X125474Y10962D01*
X125657Y10849D01*
X125868Y10694D01*
X126080Y10525D01*
X126277Y10328D01*
X126446Y10116D01*
X126461Y10088D01*
X126517Y10018D01*
X126573Y9891D01*
X126658Y9722D01*
X126728Y9524D01*
X126799Y9285D01*
X126841Y9017D01*
X126855Y8735D01*
Y8721D01*
Y8707D01*
Y8664D01*
Y8608D01*
X126827Y8453D01*
X126799Y8256D01*
X126742Y8030D01*
X126672Y7790D01*
X126559Y7537D01*
X126404Y7269D01*
Y7255D01*
X126390Y7240D01*
X126320Y7156D01*
X126221Y7029D01*
X126080Y6888D01*
X125897Y6719D01*
X125671Y6536D01*
X125417Y6367D01*
X125121Y6211D01*
X125107D01*
X125079Y6197D01*
X125037Y6183D01*
X124980Y6155D01*
X124896Y6127D01*
X124797Y6085D01*
X124572Y6028D01*
X124304Y5958D01*
X123979Y5887D01*
X123627Y5845D01*
X123246Y5831D01*
X123021D01*
X122908Y5845D01*
X122781D01*
X122640Y5859D01*
X122471Y5873D01*
X122119Y5929D01*
X121752Y5986D01*
X121385Y6085D01*
X121033Y6211D01*
X121019D01*
X120991Y6226D01*
X120948Y6254D01*
X120892Y6282D01*
X120723Y6367D01*
X120526Y6493D01*
X120300Y6662D01*
X120060Y6860D01*
X119835Y7100D01*
X119623Y7367D01*
Y7382D01*
X119595Y7410D01*
X119581Y7452D01*
X119539Y7508D01*
X119511Y7579D01*
X119468Y7663D01*
X119370Y7875D01*
X119271Y8143D01*
X119186Y8439D01*
X119130Y8777D01*
X119102Y9129D01*
X120314Y9242D01*
Y9228D01*
Y9214D01*
X120328Y9172D01*
Y9115D01*
X120357Y8989D01*
X120399Y8805D01*
X120455Y8622D01*
X120512Y8411D01*
X120610Y8213D01*
X120709Y8030D01*
X120723Y8016D01*
X120765Y7959D01*
X120836Y7861D01*
X120948Y7762D01*
X121089Y7635D01*
X121245Y7508D01*
X121456Y7382D01*
X121682Y7269D01*
X121696D01*
X121710Y7255D01*
X121752Y7240D01*
X121794Y7226D01*
X121935Y7184D01*
X122119Y7128D01*
X122344Y7071D01*
X122598Y7029D01*
X122880Y7001D01*
X123190Y6987D01*
X123317D01*
X123458Y7001D01*
X123627Y7015D01*
X123824Y7043D01*
X124050Y7071D01*
X124275Y7128D01*
X124487Y7198D01*
X124515Y7212D01*
X124586Y7240D01*
X124684Y7297D01*
X124811Y7353D01*
X124938Y7452D01*
X125079Y7551D01*
X125220Y7663D01*
X125333Y7804D01*
X125347Y7818D01*
X125375Y7875D01*
X125417Y7945D01*
X125474Y8058D01*
X125530Y8171D01*
X125572Y8312D01*
X125601Y8467D01*
X125615Y8636D01*
Y8650D01*
Y8721D01*
X125601Y8805D01*
X125586Y8918D01*
X125544Y9031D01*
X125502Y9172D01*
X125431Y9313D01*
X125333Y9440D01*
X125319Y9454D01*
X125276Y9496D01*
X125220Y9552D01*
X125121Y9637D01*
X125008Y9722D01*
X124853Y9820D01*
X124670Y9919D01*
X124459Y10003D01*
X124445Y10018D01*
X124374Y10032D01*
X124261Y10074D01*
X124191Y10088D01*
X124092Y10116D01*
X123994Y10159D01*
X123867Y10187D01*
X123726Y10229D01*
X123556Y10271D01*
X123387Y10314D01*
X123190Y10370D01*
X122964Y10426D01*
X122725Y10483D01*
X122711D01*
X122668Y10497D01*
X122598Y10511D01*
X122513Y10539D01*
X122401Y10567D01*
X122274Y10596D01*
X121992Y10680D01*
X121682Y10779D01*
X121357Y10878D01*
X121075Y10976D01*
X120948Y11033D01*
X120836Y11089D01*
X120822D01*
X120808Y11103D01*
X120723Y11159D01*
X120596Y11230D01*
X120455Y11343D01*
X120286Y11470D01*
X120117Y11625D01*
X119948Y11808D01*
X119807Y12005D01*
X119793Y12033D01*
X119750Y12104D01*
X119694Y12217D01*
X119637Y12358D01*
X119581Y12541D01*
X119525Y12752D01*
X119482Y12978D01*
X119468Y13218D01*
Y13232D01*
Y13246D01*
Y13288D01*
Y13345D01*
X119496Y13485D01*
X119525Y13669D01*
X119567Y13880D01*
X119637Y14120D01*
X119736Y14360D01*
X119877Y14599D01*
Y14613D01*
X119891Y14627D01*
X119962Y14712D01*
X120060Y14825D01*
X120187Y14966D01*
X120357Y15121D01*
X120568Y15290D01*
X120822Y15445D01*
X121104Y15586D01*
X121118D01*
X121146Y15600D01*
X121188Y15614D01*
X121245Y15642D01*
X121315Y15670D01*
X121414Y15699D01*
X121625Y15755D01*
X121893Y15812D01*
X122203Y15868D01*
X122527Y15910D01*
X122894Y15924D01*
X123077D01*
X123176Y15910D01*
D02*
G37*
G36*
X41737Y6000D02*
X40666D01*
Y7029D01*
X40652Y7015D01*
X40624Y6973D01*
X40581Y6916D01*
X40511Y6846D01*
X40427Y6761D01*
X40328Y6648D01*
X40215Y6550D01*
X40074Y6437D01*
X39919Y6324D01*
X39750Y6226D01*
X39567Y6127D01*
X39369Y6028D01*
X39144Y5958D01*
X38918Y5901D01*
X38664Y5859D01*
X38411Y5845D01*
X38312D01*
X38185Y5859D01*
X38030Y5873D01*
X37847Y5901D01*
X37649Y5944D01*
X37452Y6000D01*
X37241Y6085D01*
X37212Y6099D01*
X37156Y6127D01*
X37057Y6183D01*
X36944Y6254D01*
X36804Y6338D01*
X36677Y6437D01*
X36550Y6550D01*
X36437Y6677D01*
X36423Y6691D01*
X36395Y6747D01*
X36352Y6818D01*
X36296Y6930D01*
X36226Y7057D01*
X36169Y7212D01*
X36113Y7382D01*
X36070Y7565D01*
Y7579D01*
X36056Y7635D01*
X36042Y7720D01*
Y7833D01*
X36028Y8002D01*
X36014Y8185D01*
X36000Y8425D01*
Y8692D01*
Y13077D01*
X37198D01*
Y9144D01*
Y9129D01*
Y9101D01*
Y9059D01*
Y8989D01*
Y8834D01*
X37212Y8636D01*
Y8425D01*
X37226Y8213D01*
X37241Y8030D01*
X37269Y7875D01*
Y7861D01*
X37297Y7804D01*
X37325Y7720D01*
X37367Y7607D01*
X37438Y7494D01*
X37522Y7367D01*
X37621Y7255D01*
X37748Y7142D01*
X37762Y7128D01*
X37819Y7100D01*
X37889Y7057D01*
X38002Y7015D01*
X38129Y6959D01*
X38284Y6916D01*
X38453Y6888D01*
X38650Y6874D01*
X38749D01*
X38848Y6888D01*
X38974Y6902D01*
X39130Y6945D01*
X39299Y6987D01*
X39482Y7057D01*
X39665Y7142D01*
X39693Y7156D01*
X39750Y7198D01*
X39834Y7255D01*
X39933Y7339D01*
X40046Y7452D01*
X40159Y7579D01*
X40257Y7720D01*
X40342Y7889D01*
X40356Y7917D01*
X40370Y7974D01*
X40398Y8086D01*
X40441Y8241D01*
X40483Y8439D01*
X40511Y8678D01*
X40525Y8960D01*
X40539Y9285D01*
Y13077D01*
X41737D01*
Y6000D01*
D02*
G37*
G36*
X179648D02*
X178450D01*
Y13627D01*
X178436Y13612D01*
X178366Y13556D01*
X178281Y13471D01*
X178140Y13373D01*
X177985Y13246D01*
X177788Y13105D01*
X177562Y12950D01*
X177308Y12795D01*
X177294D01*
X177280Y12781D01*
X177196Y12724D01*
X177055Y12654D01*
X176885Y12569D01*
X176688Y12471D01*
X176477Y12372D01*
X176265Y12273D01*
X176054Y12189D01*
Y13345D01*
X176068D01*
X176096Y13373D01*
X176152Y13387D01*
X176223Y13429D01*
X176307Y13471D01*
X176406Y13528D01*
X176646Y13669D01*
X176928Y13824D01*
X177210Y14021D01*
X177506Y14247D01*
X177802Y14486D01*
X177816Y14500D01*
X177830Y14515D01*
X177872Y14557D01*
X177929Y14599D01*
X178055Y14740D01*
X178225Y14909D01*
X178394Y15107D01*
X178577Y15332D01*
X178732Y15558D01*
X178873Y15797D01*
X179648D01*
Y6000D01*
D02*
G37*
%LPC*%
G36*
X131958Y14740D02*
Y14726D01*
X131944Y14698D01*
Y14641D01*
X131916Y14585D01*
X131902Y14486D01*
X131874Y14388D01*
X131817Y14148D01*
X131747Y13866D01*
X131648Y13556D01*
X131550Y13218D01*
X131423Y12865D01*
X130365Y10018D01*
X133664D01*
X132649Y12696D01*
Y12710D01*
X132635Y12752D01*
X132607Y12823D01*
X132579Y12908D01*
X132536Y13006D01*
X132494Y13133D01*
X132452Y13274D01*
X132395Y13415D01*
X132282Y13739D01*
X132170Y14078D01*
X132057Y14416D01*
X131958Y14740D01*
D02*
G37*
G36*
X113773D02*
Y14726D01*
X113759Y14698D01*
Y14641D01*
X113731Y14585D01*
X113717Y14486D01*
X113689Y14388D01*
X113632Y14148D01*
X113562Y13866D01*
X113463Y13556D01*
X113364Y13218D01*
X113237Y12865D01*
X112180Y10018D01*
X115479D01*
X114464Y12696D01*
Y12710D01*
X114450Y12752D01*
X114422Y12823D01*
X114393Y12908D01*
X114351Y13006D01*
X114309Y13133D01*
X114267Y13274D01*
X114210Y13415D01*
X114097Y13739D01*
X113985Y14078D01*
X113872Y14416D01*
X113773Y14740D01*
D02*
G37*
G36*
X47856Y14599D02*
X45064D01*
Y11117D01*
X47686D01*
X47785Y11131D01*
X47884D01*
X47997Y11145D01*
X48264Y11174D01*
X48560Y11230D01*
X48857Y11315D01*
X49124Y11427D01*
X49251Y11498D01*
X49350Y11582D01*
X49378Y11611D01*
X49434Y11667D01*
X49519Y11780D01*
X49618Y11921D01*
X49716Y12104D01*
X49801Y12329D01*
X49857Y12583D01*
X49886Y12879D01*
Y12893D01*
Y12908D01*
Y12978D01*
X49872Y13105D01*
X49843Y13246D01*
X49815Y13401D01*
X49759Y13584D01*
X49674Y13753D01*
X49575Y13922D01*
X49561Y13937D01*
X49519Y13993D01*
X49448Y14064D01*
X49364Y14162D01*
X49237Y14261D01*
X49096Y14345D01*
X48941Y14430D01*
X48758Y14500D01*
X48744D01*
X48687Y14515D01*
X48603Y14529D01*
X48490Y14557D01*
X48321Y14571D01*
X48109Y14585D01*
X47856Y14599D01*
D02*
G37*
G36*
X163141Y14811D02*
X163056D01*
X163000Y14797D01*
X162845Y14768D01*
X162661Y14726D01*
X162450Y14641D01*
X162225Y14515D01*
X162112Y14430D01*
X161999Y14345D01*
X161900Y14233D01*
X161802Y14106D01*
Y14092D01*
X161773Y14064D01*
X161745Y14007D01*
X161703Y13937D01*
X161661Y13824D01*
X161604Y13697D01*
X161562Y13542D01*
X161506Y13359D01*
X161449Y13147D01*
X161393Y12908D01*
X161336Y12640D01*
X161294Y12344D01*
X161252Y12005D01*
X161224Y11639D01*
X161210Y11244D01*
X161196Y10807D01*
Y10779D01*
Y10708D01*
Y10582D01*
X161210Y10412D01*
Y10229D01*
X161224Y10003D01*
X161238Y9764D01*
X161266Y9510D01*
X161336Y8960D01*
X161379Y8692D01*
X161435Y8439D01*
X161492Y8199D01*
X161576Y7974D01*
X161661Y7776D01*
X161759Y7607D01*
Y7593D01*
X161787Y7579D01*
X161858Y7480D01*
X161985Y7353D01*
X162140Y7212D01*
X162351Y7071D01*
X162591Y6945D01*
X162859Y6846D01*
X163000Y6832D01*
X163155Y6818D01*
X163239D01*
X163296Y6832D01*
X163437Y6860D01*
X163634Y6916D01*
X163846Y7015D01*
X164085Y7156D01*
X164198Y7240D01*
X164311Y7353D01*
X164424Y7466D01*
X164536Y7607D01*
Y7621D01*
X164565Y7649D01*
X164593Y7692D01*
X164621Y7762D01*
X164677Y7861D01*
X164720Y7988D01*
X164776Y8129D01*
X164832Y8298D01*
X164875Y8509D01*
X164931Y8735D01*
X164988Y9003D01*
X165030Y9285D01*
X165058Y9623D01*
X165086Y9975D01*
X165114Y10370D01*
Y10807D01*
Y10821D01*
Y10835D01*
Y10906D01*
Y11033D01*
X165100Y11202D01*
Y11385D01*
X165086Y11611D01*
X165072Y11850D01*
X165044Y12118D01*
X164974Y12654D01*
X164931Y12922D01*
X164875Y13175D01*
X164818Y13415D01*
X164734Y13641D01*
X164649Y13838D01*
X164550Y14007D01*
Y14021D01*
X164522Y14035D01*
X164494Y14078D01*
X164452Y14134D01*
X164325Y14261D01*
X164170Y14416D01*
X163958Y14557D01*
X163719Y14684D01*
X163592Y14740D01*
X163451Y14782D01*
X163296Y14797D01*
X163141Y14811D01*
D02*
G37*
G36*
X66971D02*
X66844D01*
X66746Y14797D01*
X66619Y14782D01*
X66492Y14754D01*
X66337Y14726D01*
X66168Y14698D01*
X65801Y14585D01*
X65604Y14500D01*
X65406Y14416D01*
X65195Y14303D01*
X64998Y14176D01*
X64800Y14035D01*
X64617Y13866D01*
X64603Y13852D01*
X64575Y13824D01*
X64532Y13767D01*
X64462Y13683D01*
X64391Y13584D01*
X64307Y13457D01*
X64222Y13302D01*
X64124Y13119D01*
X64039Y12922D01*
X63940Y12682D01*
X63856Y12428D01*
X63785Y12146D01*
X63715Y11836D01*
X63672Y11484D01*
X63644Y11117D01*
X63630Y10723D01*
Y10708D01*
Y10652D01*
Y10553D01*
X63644Y10426D01*
X63658Y10286D01*
X63686Y10116D01*
X63715Y9919D01*
X63743Y9722D01*
X63856Y9270D01*
X63940Y9045D01*
X64025Y8805D01*
X64138Y8580D01*
X64264Y8354D01*
X64405Y8143D01*
X64575Y7945D01*
X64589Y7931D01*
X64617Y7903D01*
X64673Y7847D01*
X64744Y7790D01*
X64843Y7706D01*
X64955Y7621D01*
X65082Y7537D01*
X65223Y7438D01*
X65392Y7339D01*
X65575Y7255D01*
X65773Y7170D01*
X65984Y7085D01*
X66210Y7029D01*
X66435Y6973D01*
X66689Y6945D01*
X66957Y6930D01*
X67028D01*
X67098Y6945D01*
X67197D01*
X67323Y6959D01*
X67464Y6987D01*
X67634Y7015D01*
X67803Y7057D01*
X68000Y7114D01*
X68183Y7184D01*
X68395Y7255D01*
X68592Y7353D01*
X68790Y7480D01*
X68987Y7607D01*
X69184Y7762D01*
X69368Y7945D01*
X69382Y7959D01*
X69410Y7988D01*
X69452Y8058D01*
X69523Y8143D01*
X69593Y8241D01*
X69664Y8368D01*
X69748Y8523D01*
X69847Y8692D01*
X69932Y8890D01*
X70016Y9115D01*
X70087Y9355D01*
X70171Y9609D01*
X70227Y9891D01*
X70270Y10201D01*
X70298Y10525D01*
X70312Y10863D01*
Y10878D01*
Y10920D01*
Y10976D01*
Y11061D01*
X70298Y11159D01*
Y11286D01*
X70284Y11413D01*
X70256Y11568D01*
X70213Y11892D01*
X70143Y12231D01*
X70044Y12597D01*
X69903Y12936D01*
Y12950D01*
X69889Y12978D01*
X69861Y13020D01*
X69833Y13077D01*
X69734Y13246D01*
X69607Y13443D01*
X69438Y13669D01*
X69227Y13894D01*
X68987Y14120D01*
X68719Y14317D01*
X68705D01*
X68691Y14345D01*
X68649Y14360D01*
X68578Y14402D01*
X68508Y14430D01*
X68423Y14472D01*
X68212Y14571D01*
X67958Y14655D01*
X67662Y14740D01*
X67323Y14797D01*
X66971Y14811D01*
D02*
G37*
G36*
X76853Y14599D02*
X74541D01*
Y11667D01*
X76938D01*
X77121Y11681D01*
X77318Y11695D01*
X77516Y11709D01*
X77713Y11738D01*
X77868Y11766D01*
X77896Y11780D01*
X77953Y11794D01*
X78037Y11836D01*
X78150Y11892D01*
X78263Y11949D01*
X78390Y12033D01*
X78517Y12146D01*
X78615Y12259D01*
X78629Y12273D01*
X78657Y12315D01*
X78700Y12400D01*
X78742Y12499D01*
X78784Y12612D01*
X78827Y12752D01*
X78855Y12922D01*
X78869Y13105D01*
Y13133D01*
Y13190D01*
X78855Y13274D01*
X78841Y13387D01*
X78813Y13528D01*
X78770Y13669D01*
X78714Y13810D01*
X78629Y13951D01*
X78615Y13965D01*
X78587Y14007D01*
X78531Y14078D01*
X78460Y14148D01*
X78362Y14233D01*
X78249Y14317D01*
X78108Y14402D01*
X77953Y14458D01*
X77939D01*
X77868Y14486D01*
X77769Y14500D01*
X77614Y14529D01*
X77403Y14557D01*
X77163Y14571D01*
X76853Y14599D01*
D02*
G37*
G36*
X77107Y10511D02*
X74541D01*
Y7156D01*
X77318D01*
X77614Y7170D01*
X77741Y7184D01*
X77854Y7198D01*
X77868D01*
X77924Y7212D01*
X78009Y7226D01*
X78108Y7255D01*
X78347Y7339D01*
X78587Y7452D01*
X78601Y7466D01*
X78643Y7494D01*
X78700Y7537D01*
X78770Y7593D01*
X78841Y7678D01*
X78939Y7762D01*
X79010Y7875D01*
X79095Y8002D01*
X79109Y8016D01*
X79123Y8058D01*
X79151Y8143D01*
X79193Y8241D01*
X79236Y8354D01*
X79264Y8495D01*
X79278Y8664D01*
X79292Y8834D01*
Y8862D01*
Y8918D01*
X79278Y9031D01*
X79250Y9158D01*
X79221Y9299D01*
X79165Y9454D01*
X79095Y9609D01*
X78996Y9764D01*
X78982Y9778D01*
X78939Y9834D01*
X78883Y9905D01*
X78798Y9989D01*
X78686Y10088D01*
X78545Y10187D01*
X78390Y10271D01*
X78206Y10342D01*
X78178Y10356D01*
X78122Y10370D01*
X77995Y10398D01*
X77840Y10426D01*
X77642Y10455D01*
X77403Y10483D01*
X77107Y10511D01*
D02*
G37*
G36*
X57244Y14670D02*
X54171D01*
Y11441D01*
X57075D01*
X57244Y11456D01*
X57442Y11470D01*
X57667Y11484D01*
X57893Y11512D01*
X58118Y11554D01*
X58316Y11611D01*
X58344Y11625D01*
X58400Y11653D01*
X58485Y11695D01*
X58597Y11752D01*
X58724Y11836D01*
X58851Y11935D01*
X58978Y12062D01*
X59077Y12203D01*
X59091Y12217D01*
X59119Y12273D01*
X59161Y12358D01*
X59218Y12471D01*
X59260Y12597D01*
X59302Y12738D01*
X59331Y12908D01*
X59345Y13077D01*
Y13091D01*
Y13105D01*
X59331Y13190D01*
X59316Y13316D01*
X59288Y13485D01*
X59218Y13655D01*
X59133Y13852D01*
X59006Y14035D01*
X58837Y14218D01*
X58809Y14233D01*
X58738Y14289D01*
X58626Y14360D01*
X58442Y14444D01*
X58231Y14529D01*
X57949Y14599D01*
X57625Y14655D01*
X57244Y14670D01*
D02*
G37*
%LPD*%
D15*
X10000Y33000D02*
Y183000D01*
X355000Y183000D01*
X10000Y33000D02*
X355000Y33000D01*
X45000Y180000D02*
X85000D01*
X45000Y116000D02*
X85000D01*
X33000Y138000D02*
Y158000D01*
X97000Y138000D02*
Y158000D01*
X45000Y36000D02*
X85000D01*
X45000Y100000D02*
X85000D01*
X97000Y58000D02*
Y78000D01*
X33000Y58000D02*
Y78000D01*
D16*
X80000Y148000D02*
G03*
X80000Y148000I-15000J0D01*
G01*
Y68000D02*
G03*
X80000Y68000I-15000J0D01*
G01*
X285000Y82000D02*
Y78668D01*
Y80334D01*
X294997D01*
X293331Y82000D01*
Y73669D02*
X294997Y72003D01*
Y68671D01*
X293331Y67005D01*
X291665D01*
X289998Y68671D01*
Y70337D01*
Y68671D01*
X288332Y67005D01*
X286666D01*
X285000Y68671D01*
Y72003D01*
X286666Y73669D01*
X285000Y187000D02*
Y183668D01*
Y185334D01*
X294997D01*
X293331Y187000D01*
D33*
X268064Y99976D02*
Y103024D01*
X259936Y99976D02*
Y103024D01*
X246238Y110222D02*
X255762D01*
X246238Y113778D02*
X255762D01*
X131222Y42238D02*
Y51762D01*
X134778Y42238D02*
Y51762D01*
D34*
X280000Y194000D02*
X358000D01*
X280000Y64000D02*
X363000D01*
X280000Y180000D02*
Y194000D01*
Y64000D02*
Y78000D01*
M02*
