M48
;Layer_Color=9474304
;FILE_FORMAT=4:4
METRIC,LZ
;TYPE=PLATED
T1F00S00C0.5000
T2F00S00C0.6000
T3F00S00C0.7620
%
T01
X00203Y00028
X0022Y00016
X00237Y00015
X00256Y00031
X0027Y00032
X00284Y00076
X00233Y00077
Y00097
X00206
Y00077
X00215Y0011
X00231Y00153
X00251Y001485
X0027Y00186
X00197Y00206
X00129Y00167
X00114Y00142
X00131Y00124
X00124Y00078
X00084Y00063
X00168Y00043
X00299Y00056
X00342Y00058
X00358Y00057
X0036Y0004
X00331Y00089
X00327999Y00128
X00317314Y00138686
X00319Y00158
X0033Y00149686
X00362Y00143
X00363Y00173
T02
X00124Y00106
T03
X00025Y00025
X001
X0014
X00141Y00191
X001
X00025Y00195
X00358Y00197
M30
